<?xml version="1.0" encoding="UTF-8"?>
<svg width="64px" height="64px" viewBox="0 0 64 64" version="1.1" xmlns="http://www.w3.org/2000/svg" xmlns:xlink="http://www.w3.org/1999/xlink">
    <title>Icon-Architecture/48/Arch_AWS-Thinkbox-Sequoia_48</title>
    <g id="Icon-Architecture/48/Arch_AWS-Thinkbox-Sequoia_48" stroke="none" stroke-width="1" fill="none" fill-rule="evenodd">
        <g id="Icon-Architecture-BG/48/Compute" fill="#ED7100">
            <rect id="Rectangle" x="0" y="0" width="64" height="64"></rect>
        </g>
        <g id="Icon-Service/48/AWS-ThinkBox-Sequoia_48" transform="translate(11.999958, 10.000000)" fill="#FFFFFF">
            <path d="M13.3170854,24.02025 L14.8390854,24.88825 L13.8490854,26.62525 L11.8140854,25.46525 C10.8780854,26.31525 9.89208539,27.14625 8.80908539,27.94325 L20.0000854,34.86825 L31.1900854,27.94325 C30.1050854,27.14525 29.1190854,26.31225 28.1800854,25.46125 L26.1340854,26.62525 L25.1460854,24.88725 L26.6780854,24.01625 C25.7950854,23.10625 24.9790854,22.17025 24.2500854,21.20125 L20.5000854,23.36625 C20.3450854,23.45625 20.1720854,23.50025 20.0000854,23.50025 C19.8270854,23.50025 19.6540854,23.45625 19.5000854,23.36625 L15.7500854,21.20125 C15.0190854,22.17225 14.2030854,23.10925 13.3170854,24.02025 L13.3170854,24.02025 Z M16.8890854,19.54925 L20.0000854,21.34525 L23.1100854,19.54925 C21.7280854,17.39525 20.6790854,15.10625 20.0000854,12.65625 C19.3200854,15.10525 18.2710854,17.39525 16.8890854,19.54925 L16.8890854,19.54925 Z M5.33108539,20.25725 C8.93308539,17.01325 11.0000854,12.91025 11.0000854,9.00025 L13.0000854,9.00025 C13.0000854,11.89425 13.6410854,14.48025 14.8550854,16.48125 L13.1440854,17.51925 C12.6050854,16.62825 12.1660854,15.64325 11.8260854,14.58425 C10.9200854,16.78425 9.51908539,18.90625 7.66008539,20.79525 L11.5210854,22.99625 C16.5350854,17.99825 19.0000854,12.05925 19.0000854,4.98125 C19.0000854,4.42925 19.4470854,3.98125 20.0000854,3.98125 C20.5520854,3.98125 21.0000854,4.42925 21.0000854,4.98125 C21.0000854,12.05825 23.4630854,17.99525 28.4750854,22.99325 L32.3380854,20.79425 C30.4800854,18.90525 29.0800854,16.78425 28.1730854,14.58425 C27.8340854,15.64325 27.3940854,16.62825 26.8550854,17.51925 L25.1440854,16.48125 C26.3580854,14.48025 27.0000854,11.89425 27.0000854,9.00025 L29.0000854,9.00025 C29.0000854,12.91025 31.0660854,17.01325 34.6690854,20.25725 C34.9080854,20.47225 35.0280854,20.78925 34.9940854,21.10825 C34.9600854,21.42725 34.7730854,21.71025 34.4940854,21.86925 L30.0070854,24.42225 C31.0960854,25.37325 32.2730854,26.29325 33.5630854,27.17425 C33.8430854,27.36525 34.0070854,27.68425 34.0000854,28.02225 C33.9920854,28.36125 33.8130854,28.67225 33.5260854,28.85125 L20.5260854,36.89525 C20.3650854,36.99425 20.1820854,37.04425 20.0000854,37.04425 C19.8170854,37.04425 19.6340854,36.99425 19.4730854,36.89525 L6.47308539,28.85125 C6.18608539,28.67225 6.00708539,28.36125 6.00008539,28.02225 C5.99208539,27.68425 6.15608539,27.36525 6.43608539,27.17425 C7.72508539,26.29425 8.90108539,25.37525 9.98808539,24.42425 L5.50508539,21.86925 C5.22508539,21.71025 5.04008539,21.42725 5.00508539,21.10725 C4.97108539,20.78825 5.09108539,20.47225 5.33108539,20.25725 L5.33108539,20.25725 Z M31.7960854,6.56825 L27.8990854,4.31825 L26.8990854,6.05025 L30.7960854,8.30025 L31.7960854,6.56825 Z M13.1000854,6.05025 L12.1000854,4.31825 L8.20308539,6.56825 L9.20308539,8.30025 L13.1000854,6.05025 Z M39.6400854,11.30025 L35.3270854,8.60725 L34.2680854,10.30425 L37.1640854,12.11125 L34.5030854,13.63825 L35.4970854,15.37325 L38.0000854,13.87925 L38.0000854,30.38625 L35.4470854,29.10525 L34.5520854,30.89525 L36.8920854,32.06425 L20.0000854,41.84525 L3.10708539,32.06425 L5.44708539,30.89525 L4.55208539,29.10525 L2.00008539,30.38625 L2.00008539,13.87925 L4.50308539,15.37325 L5.49708539,13.63825 L2.83608539,12.11125 L5.73108539,10.30425 L4.67208539,8.60725 L0.359085391,11.30025 C0.0640853915,11.48325 -0.00191460851,11.80725 4.1772953e-05,12.15325 L4.1772953e-05,32.00525 C0.00208539149,32.36025 0.191085391,32.68725 0.499085391,32.86525 L19.4990854,43.86525 C19.6540854,43.95525 19.8270854,44.00025 20.0000854,44.00025 C20.1720854,44.00025 20.3450854,43.95525 20.5010854,43.86525 L39.5010854,32.86525 C39.8080854,32.68725 39.9980854,32.36025 40.0001284,32.00525 L40.0001284,12.15325 C40.0020854,11.80725 39.9350854,11.48325 39.6400854,11.30025 L39.6400854,11.30025 Z M20.0000854,30.02125 C20.1720854,30.02125 20.3450854,29.97725 20.5000854,29.88825 L23.2890854,28.27725 L22.2890854,26.54525 L20.0000854,27.86725 L17.7110854,26.54525 L16.7110854,28.27725 L19.5000854,29.88825 C19.6540854,29.97725 19.8270854,30.02125 20.0000854,30.02125 L20.0000854,30.02125 Z M16.5330854,4.24625 L15.5040854,2.53125 L19.4850854,0.14325 C19.8010854,-0.04775 20.1980854,-0.04775 20.5140854,0.14325 L24.4960854,2.53125 L23.4660854,4.24625 L20.0000854,2.16625 L16.5330854,4.24625 Z" id="AWS-ThinkBox-Sequoia_48_Squid"></path>
        </g>
    </g>
</svg>