<?xml version="1.0" encoding="UTF-8"?>
<svg width="64px" height="64px" viewBox="0 0 64 64" version="1.1" xmlns="http://www.w3.org/2000/svg" xmlns:xlink="http://www.w3.org/1999/xlink">
    <title>Icon-Architecture/48/Arch_Amazon-Nimble-Studio_48</title>
    <g id="Icon-Architecture/48/Arch_Amazon-Nimble-Studio_48" stroke="none" stroke-width="1" fill="none" fill-rule="evenodd">
        <g id="Icon-Architecture-BG/48/Media-Services" fill="#ED7100">
            <rect id="Rectangle" x="0" y="0" width="64" height="64"></rect>
        </g>
        <g id="Icon-Service/48/Amazon-Nimble-Studio_48" transform="translate(10.000000, 10.000000)" fill="#FFFFFF">
            <path d="M28.237,36.666 C26.974,35.992 25.065,34.974 23.227,32.884 C21.52,30.945 20.701,29.023 20.102,27.619 C19.42,26.019 18.909,24.337 18.586,22.621 C18.508,22.202 18.173,21.88 17.752,21.817 C17.324,21.748 16.915,21.965 16.717,22.341 C16.263,23.207 15.85,24.103 15.488,25.004 C14.707,26.95 12.659,33.837 12.734,39 L9.807,39 C8.925,35.753 7.908,33.052 4.114,27.149 C3.811,26.678 3.516,26.195 3.234,25.733 C2.886,25.165 2.551,24.617 2.238,24.149 L6.424,18.583 C6.623,18.96 6.81,19.343 6.986,19.73 C7.588,21.056 7.865,22.033 8.535,24.395 L8.867,25.563 C9.103,26.391 9.482,27.705 9.967,29.349 C10.106,29.818 10.563,30.112 11.048,30.058 C11.533,29.999 11.904,29.598 11.925,29.11 C12.186,23.263 13.413,17.845 15.572,13.006 C17.68,8.283 20.027,5.617 21.238,4.447 C21.984,3.727 22.785,3.052 23.629,2.433 L27.863,9.313 C27.084,9.931 26.363,10.622 25.714,11.375 C24.737,12.51 23.879,13.869 23.232,15.306 C22.669,16.557 21.726,19.169 21.739,22.614 C21.743,23.547 21.752,25.73 22.675,28.344 C23.111,29.583 24.467,32.76 27.618,35.487 C29.171,36.831 30.763,37.726 32.173,38.331 C30.332,37.784 28.972,37.059 28.237,36.666 M20.926,2.059 C20.563,2.371 20.192,2.677 19.849,3.008 C17.578,5.201 15.411,8.461 13.746,12.191 C12.15,15.766 11.041,19.637 10.43,23.749 C9.772,21.427 9.462,20.346 8.807,18.903 C8.391,17.987 7.913,17.092 7.385,16.242 C7.211,15.962 6.91,15.786 6.58,15.771 C6.263,15.764 5.934,15.905 5.737,16.169 L2.143,20.949 C2.533,10.824 10.701,2.65 20.926,2.059 M42.02,37.904 C40.953,37.966 38.96,38.079 36.547,37.58 C35.304,37.323 32.007,36.64 28.926,33.975 C26.138,31.561 24.945,28.768 24.56,27.679 C23.75,25.384 23.743,23.508 23.739,22.606 C23.727,19.424 24.656,17.015 25.056,16.126 C25.774,14.53 26.634,13.371 27.229,12.68 C27.975,11.815 28.829,11.043 29.767,10.388 C30.201,10.084 30.323,9.495 30.046,9.044 L25.939,2.372 C35.137,4.14 42.104,12.129 42.104,21.699 C42.104,26.475 40.347,31.082 37.157,34.671 L38.651,36 C42.168,32.044 44.104,26.966 44.104,21.699 C44.104,10.473 35.415,1.21 24.322,0.11 C24.26,0.083 24.205,0.043 24.138,0.029 C23.972,-0.007 23.807,0.014 23.649,0.06 C23.138,0.024 22.624,0 22.104,0 C9.973,0 0.104,9.734 0.104,21.699 C0.104,22.188 0.041,23.5 0.012,24.052 C0.009,24.097 0.004,24.14 0.007,24.185 C0.003,24.258 -3.55271368e-15,24.309 -3.55271368e-15,24.312 L0.028,24.313 C0.056,24.467 0.108,24.618 0.21,24.749 C0.575,25.216 1.038,25.974 1.527,26.776 C1.817,27.25 2.12,27.746 2.431,28.23 C6.431,34.454 7.18,36.853 8.071,40.253 C8.186,40.693 8.584,41 9.039,41 L12.967,41 L12.964,41.008 C15.821,42.33 18.878,43 22.05,43 C23.874,43 25.688,42.772 27.441,42.324 L26.945,40.386 C25.354,40.793 23.707,41 22.05,41 C19.522,41 17.076,40.531 14.762,39.606 C14.501,35.032 16.416,28.103 17.317,25.816 C17.587,26.696 17.902,27.561 18.262,28.404 C18.878,29.846 19.806,32.025 21.725,34.206 C23.803,36.567 25.989,37.734 27.296,38.431 C28.571,39.111 31.557,40.705 35.705,40.998 C36.152,41.029 36.599,41.044 37.041,41.044 C40.184,41.043 43.053,40.305 43.65,39.686 C43.856,39.473 43.985,39.124 43.953,38.828 C43.841,37.801 42.835,37.858 42.02,37.904" id="Fill-1"></path>
        </g>
    </g>
</svg>