<?xml version="1.0" encoding="UTF-8"?>
<svg width="64px" height="64px" viewBox="0 0 64 64" version="1.1" xmlns="http://www.w3.org/2000/svg" xmlns:xlink="http://www.w3.org/1999/xlink">
    <title>Icon-Architecture/48/Arch_AWS-IoT-RoboRunner_48</title>
    <g id="Icon-Architecture/48/Arch_AWS-IoT-RoboRunner_48" stroke="none" stroke-width="1" fill="none" fill-rule="evenodd">
        <g id="Icon-Architecture-BG/48/Internet-of-Things" fill="#7AA116">
            <rect id="Rectangle" x="0" y="0" width="64" height="64"></rect>
        </g>
        <g id="Icon-Service/48/AWS-IoT-RoboRunner_48" transform="translate(10.000000, 10.000000)" fill="#FFFFFF">
            <path d="M39,2 C40.654,2 42,3.346 42,5 C42,6.654 40.654,8 39,8 C37.346,8 36,6.654 36,5 C36,3.346 37.346,2 39,2 L39,2 Z M39,10 C41.757,10 44,7.757 44,5 C44,2.243 41.757,0 39,0 C36.586,0 34.566,1.721 34.101,4 L25,4 L25,6 L34.101,6 C34.566,8.279 36.586,10 39,10 L39,10 Z M31.293,31.293 C33.748,28.837 35.101,25.537 35.101,22 C35.101,18.463 33.748,15.163 31.293,12.707 L32.707,11.293 C35.54,14.126 37.101,17.929 37.101,22 C37.101,26.071 35.54,29.874 32.707,32.707 L31.293,31.293 Z M12.707,12.707 C10.252,15.163 8.899,18.463 8.899,22 C8.899,25.537 10.252,28.837 12.707,31.293 L11.293,32.707 C8.46,29.874 6.899,26.071 6.899,22 C6.899,17.929 8.46,14.126 11.293,11.293 L12.707,12.707 Z M5,42 C3.346,42 2,40.654 2,39 C2,37.346 3.346,36 5,36 C6.654,36 8,37.346 8,39 C8,40.654 6.654,42 5,42 L5,42 Z M5,34 C2.243,34 0,36.243 0,39 C0,41.757 2.243,44 5,44 C7.414,44 9.434,42.279 9.899,40 L19,40 L19,38 L9.899,38 C9.434,35.721 7.414,34 5,34 L5,34 Z M39,42 C37.346,42 36,40.654 36,39 C36,37.346 37.346,36 39,36 C40.654,36 42,37.346 42,39 C42,40.654 40.654,42 39,42 L39,42 Z M15,22 C15,18.14 18.141,15 22,15 C25.859,15 29,18.14 29,22 C29,25.86 25.859,29 22,29 C18.141,29 15,25.86 15,22 L15,22 Z M5,8 C3.346,8 2,6.654 2,5 C2,3.346 3.346,2 5,2 C6.654,2 8,3.346 8,5 C8,6.654 6.654,8 5,8 L5,8 Z M39,34 C36.586,34 34.566,35.721 34.101,38 L23,38 L23,30.941 C27.493,30.442 31,26.624 31,22 C31,17.376 27.493,13.558 23,13.059 L23,5 C23,4.448 22.553,4 22,4 L9.899,4 C9.434,1.721 7.414,0 5,0 C2.243,0 0,2.243 0,5 C0,7.757 2.243,10 5,10 C7.414,10 9.434,8.279 9.899,6 L21,6 L21,13.059 C16.507,13.558 13,17.376 13,22 C13,26.624 16.507,30.442 21,30.941 L21,39 C21,39.552 21.447,40 22,40 L34.101,40 C34.566,42.279 36.586,44 39,44 C41.757,44 44,41.757 44,39 C44,36.243 41.757,34 39,34 L39,34 Z" id="Fill-5"></path>
        </g>
    </g>
</svg>