<svg xmlns="http://www.w3.org/2000/svg" direction="ltr" width="2649" height="844" viewBox="-32 -32 2649 844" stroke-linecap="round" stroke-linejoin="round" style="background-color: rgb(249, 250, 251);" encoding="UTF-8&quot;"><defs><clipPath id="tvmWBsMASTu7Try--jGNM"><path d="M0,0L220,0L220,480L0,480Z"/></clipPath><clipPath id="tYrtV1FCV2f4ZEi_rvxVP"><path d="M0,0L220,0L220,480L0,480Z"/></clipPath><clipPath id="z0yqn94aJFukpf7EONEpA"><path d="M0,0L220,0L220,480L0,480Z"/></clipPath><clipPath id="ONAbfG5Mg_25EHo6bothL"><path d="M0,0L220,0L220,480L0,480Z"/></clipPath><clipPath id="7hCmckHTNVrYXQJfRlD-W"><path d="M1880,0L2585,0L2585,780L1880,780Z"/></clipPath><clipPath id="HEvd8lNZoaOT7Cfi63A3B"><path d="M1880,0L2585,0L2585,780L1880,780Z"/></clipPath><clipPath id="Q6lCZ94GSV8_YlEM4zNYZ"><path d="M1880,0L2585,0L2585,780L1880,780Z"/></clipPath><clipPath id="-IgYSSTZR62QtDhOEGFZ3"><path d="M1880,0L2585,0L2585,780L1880,780Z"/></clipPath><clipPath id="vf-uPRHeB-KTkQzbdriZR"><path d="M1880,0L2585,0L2585,780L1880,780Z"/></clipPath><clipPath id="jRonNWNJRwX3lxinNnYQ8"><path d="M1880,0L2585,0L2585,780L1880,780Z"/></clipPath><clipPath id="dzUrp0lDvxJMIf_m8ugsQ"><path d="M1880,0L2585,0L2585,780L1880,780Z"/></clipPath><clipPath id="FLtDTpPW9KprkYaBbKmTw"><path d="M1880,0L2585,0L2585,780L1880,780Z"/></clipPath><clipPath id="C3gPQ4EBHQV0h3b-boqZo"><path d="M1880,0L2585,0L2585,780L1880,780Z"/></clipPath><clipPath id="cuO_csJNVXunxQB8e0uNk"><path d="M1880,0L2585,0L2585,780L1880,780Z"/></clipPath><clipPath id="l62-gKCed_dtJlFUCHf8-"><path d="M1880,0L2585,0L2585,780L1880,780Z"/></clipPath><clipPath id="NQxfUBVaxm27cZUp0fI3g"><path d="M1880,0L2585,0L2585,780L1880,780Z"/></clipPath><clipPath id="fbFgMyquWnVGc6iivWWWY"><path d="M1880,0L2585,0L2585,780L1880,780Z"/></clipPath><clipPath id="-V9ZpB-8LDiJ5sS643HBn"><path d="M1880,0L2585,0L2585,780L1880,780Z"/></clipPath><clipPath id="7arzsjP2q-TdxyzEpKoM0"><path d="M1880,0L2585,0L2585,780L1880,780Z"/></clipPath><clipPath id="O5-Zgvu72flqfBcEHa_eI"><path d="M1880,0L2585,0L2585,780L1880,780Z"/></clipPath><clipPath id="J8xpbNssjhrHjkZO-xDAE"><path d="M1880,0L2585,0L2585,780L1880,780Z"/></clipPath></defs><g transform="matrix(1, 0, 0, 1, 0, 0)" opacity="1"><g><rect width="220" height="480" fill="#fcfffe" stroke="#1d1d1d" stroke-width="1" rx="1" ry="1"/><rect x="-8px" y="-36px" width="90.71875px" height="32px" rx="4px" ry="4px" fill="rgb(249, 250, 251)"/><text font-size="12px" font-family="Inter, sans-serif" font-style="normal" font-weight="normal" line-height="12px" dominant-baseline="mathematical" alignment-baseline="mathematical"><tspan alignment-baseline="mathematical" x="0px" y="-20px">module.cache​</tspan></text></g></g><g clip-path="url(#tvmWBsMASTu7Try--jGNM)"><rect width="120" height="120" fill="#fcfffe" stroke="#bcc3c9" stroke-width="1" transform="matrix(1, 0, 0, 1, 35, 60)" opacity="1"/></g><g clip-path="url(#tYrtV1FCV2f4ZEi_rvxVP)"><rect width="120" height="120" fill="#fcfffe" stroke="#bcc3c9" stroke-width="1" transform="matrix(1, 0, 0, 1, 35, 300)" opacity="1"/></g><g clip-path="url(#z0yqn94aJFukpf7EONEpA)"><g transform="matrix(1, 0, 0, 1, 0, 0)" opacity="1"><g><defs><mask id="shape_module.cache.aws_iam_policy.docker_machine_cache-module.cache.aws_s3_bucket.build_cache1703090947298_clip"><rect x="-5" y="80" width="200" height="309" fill="white"/><path d="M 98 283.80384757729337 L 95 289 L 92 283.80384757729337" fill="none" stroke="none"/></mask></defs><g mask="url(#shape_module.cache.aws_iam_policy.docker_machine_cache-module.cache.aws_s3_bucket.build_cache1703090947298_clip)"><rect x="-100" y="-100" width="200" height="309" fill="transparent" stroke="none"/><path d="M95,180L95,289" fill="none" stroke="#1d1d1d" stroke-width="2" stroke-dasharray="none" stroke-dashoffset="none"/></g><path d="M 98 283.80384757729337 L 95 289 L 92 283.80384757729337" fill="none" stroke="#1d1d1d" stroke-width="2"/></g></g></g><g clip-path="url(#ONAbfG5Mg_25EHo6bothL)"><g transform="matrix(1, 0, 0, 1, 0, 0)" opacity="1"><g><defs><mask id="shape_module.cache.aws_s3_bucket.build_cache-module.cache.aws_s3_bucket.build_cache1703090947298_clip"><rect x="-5" y="260" width="200" height="200" fill="white"/><path d="M NaN NaN L 95 360 L NaN NaN" fill="none" stroke="none"/></mask></defs><g mask="url(#shape_module.cache.aws_s3_bucket.build_cache-module.cache.aws_s3_bucket.build_cache1703090947298_clip)"><rect x="-100" y="-100" width="200" height="200" fill="transparent" stroke="none"/><path d="M95,360L95,360" fill="none" stroke="#1d1d1d" stroke-width="2" stroke-dasharray="none" stroke-dashoffset="none"/></g><path d="M NaN NaN L 95 360 L NaN NaN" fill="none" stroke="#1d1d1d" stroke-width="2"/></g></g></g><g transform="matrix(1, 0, 0, 1, 1880, 0)" opacity="1"><g><rect width="705" height="780" fill="#fcfffe" stroke="#1d1d1d" stroke-width="1" rx="1" ry="1"/><rect x="-8px" y="-36px" width="178.1171875px" height="32px" rx="4px" ry="4px" fill="rgb(249, 250, 251)"/><text font-size="12px" font-family="Inter, sans-serif" font-style="normal" font-weight="normal" line-height="12px" dominant-baseline="mathematical" alignment-baseline="mathematical"><tspan alignment-baseline="mathematical" x="0px" y="-20px">module.terminate_agent_hook​</tspan></text></g></g><g clip-path="url(#7hCmckHTNVrYXQJfRlD-W)"><rect width="120" height="120" fill="#fcfffe" stroke="#bcc3c9" stroke-width="1" transform="matrix(1, 0, 0, 1, 2000, 60)" opacity="1"/></g><g clip-path="url(#HEvd8lNZoaOT7Cfi63A3B)"><g transform="matrix(1, 0, 0, 1, 0, 0)" opacity="1"><g><defs><mask id="shape_module.terminate_agent_hook.aws_cloudwatch_event_rule.terminate_instances-module.terminate_agent_hook.aws_cloudwatch_event_rule.terminate_instances1703090947298_clip"><rect x="1960" y="20" width="200" height="200" fill="white"/><path d="M NaN NaN L 2060 120 L NaN NaN" fill="none" stroke="none"/></mask></defs><g mask="url(#shape_module.terminate_agent_hook.aws_cloudwatch_event_rule.terminate_instances-module.terminate_agent_hook.aws_cloudwatch_event_rule.terminate_instances1703090947298_clip)"><rect x="-100" y="-100" width="200" height="200" fill="transparent" stroke="none"/><path d="M2060,120L2060,120" fill="none" stroke="#1d1d1d" stroke-width="2" stroke-dasharray="none" stroke-dashoffset="none"/></g><path d="M NaN NaN L 2060 120 L NaN NaN" fill="none" stroke="#1d1d1d" stroke-width="2"/></g></g></g><g clip-path="url(#Q6lCZ94GSV8_YlEM4zNYZ)"><rect width="120" height="120" fill="#fcfffe" stroke="#bcc3c9" stroke-width="1" transform="matrix(1, 0, 0, 1, 2000, 300)" opacity="1"/></g><g clip-path="url(#-IgYSSTZR62QtDhOEGFZ3)"><g transform="matrix(1, 0, 0, 1, 0, 0)" opacity="1"><g><defs><mask id="shape_module.terminate_agent_hook.aws_lambda_function.terminate_runner_instances-module.terminate_agent_hook.aws_lambda_function.terminate_runner_instances1703090947298_clip"><rect x="1960" y="260" width="200" height="200" fill="white"/><path d="M NaN NaN L 2060 360 L NaN NaN" fill="none" stroke="none"/></mask></defs><g mask="url(#shape_module.terminate_agent_hook.aws_lambda_function.terminate_runner_instances-module.terminate_agent_hook.aws_lambda_function.terminate_runner_instances1703090947298_clip)"><rect x="-100" y="-100" width="200" height="200" fill="transparent" stroke="none"/><path d="M2060,360L2060,360" fill="none" stroke="#1d1d1d" stroke-width="2" stroke-dasharray="none" stroke-dashoffset="none"/></g><path d="M NaN NaN L 2060 360 L NaN NaN" fill="none" stroke="#1d1d1d" stroke-width="2"/></g></g></g><g clip-path="url(#vf-uPRHeB-KTkQzbdriZR)"><g transform="matrix(1, 0, 0, 1, 0, 0)" opacity="1"><g><defs><mask id="shape_module.terminate_agent_hook.aws_lambda_function.terminate_runner_instances-module.terminate_agent_hook.aws_cloudwatch_event_rule.terminate_instances1703090947298_clip"><rect x="1960" y="91" width="200" height="309" fill="white"/><path d="M 2057 196.19615242270663 L 2060 191 L 2063 196.19615242270663" fill="none" stroke="none"/></mask></defs><g mask="url(#shape_module.terminate_agent_hook.aws_lambda_function.terminate_runner_instances-module.terminate_agent_hook.aws_cloudwatch_event_rule.terminate_instances1703090947298_clip)"><rect x="-100" y="-100" width="200" height="309" fill="transparent" stroke="none"/><path d="M2060,300L2060,191" fill="none" stroke="#1d1d1d" stroke-width="2" stroke-dasharray="none" stroke-dashoffset="none"/></g><path d="M 2057 196.19615242270663 L 2060 191 L 2063 196.19615242270663" fill="none" stroke="#1d1d1d" stroke-width="2"/></g></g></g><g clip-path="url(#jRonNWNJRwX3lxinNnYQ8)"><g transform="matrix(1, 0, 0, 1, 0, 0)" opacity="1"><g><defs><mask id="shape_module.terminate_agent_hook.aws_cloudwatch_event_rule.terminate_instances-module.terminate_agent_hook.aws_lambda_function.terminate_runner_instances1703090947298_clip"><rect x="1960" y="80" width="200" height="309" fill="white"/><path d="M 2063 283.80384757729337 L 2060 289 L 2057 283.80384757729337" fill="none" stroke="none"/></mask></defs><g mask="url(#shape_module.terminate_agent_hook.aws_cloudwatch_event_rule.terminate_instances-module.terminate_agent_hook.aws_lambda_function.terminate_runner_instances1703090947298_clip)"><rect x="-100" y="-100" width="200" height="309" fill="transparent" stroke="none"/><path d="M2060,180L2060,289" fill="none" stroke="#1d1d1d" stroke-width="2" stroke-dasharray="none" stroke-dashoffset="none"/></g><path d="M 2063 283.80384757729337 L 2060 289 L 2057 283.80384757729337" fill="none" stroke="#1d1d1d" stroke-width="2"/></g></g></g><g clip-path="url(#dzUrp0lDvxJMIf_m8ugsQ)"><rect width="120" height="120" fill="#fcfffe" stroke="#bcc3c9" stroke-width="1" transform="matrix(1, 0, 0, 1, 2015, 600)" opacity="1"/></g><g clip-path="url(#FLtDTpPW9KprkYaBbKmTw)"><rect width="120" height="120" fill="#fcfffe" stroke="#bcc3c9" stroke-width="1" transform="matrix(1, 0, 0, 1, 2200, 300)" opacity="1"/></g><g clip-path="url(#C3gPQ4EBHQV0h3b-boqZo)"><g transform="matrix(1, 0, 0, 1, 0, 0)" opacity="1"><g><defs><mask id="shape_module.terminate_agent_hook.aws_iam_policy.lambda-module.terminate_agent_hook.aws_cloudwatch_log_group.lambda1703090947298_clip"><rect x="2017.773775732961" y="320" width="305.226224267039" height="370.6371204330361" fill="white"/><path d="M 2123.0546900478594 587.7889729651718 L 2117.773775732961 590.6371204330361 L 2117.9476648295154 584.6396407471932" fill="none" stroke="none"/></mask></defs><g mask="url(#shape_module.terminate_agent_hook.aws_iam_policy.lambda-module.terminate_agent_hook.aws_cloudwatch_log_group.lambda1703090947298_clip)"><rect x="-100" y="-100" width="305.226224267039" height="370.6371204330361" fill="transparent" stroke="none"/><path d="M2223,420L2117.773775732961,590.6371204330361" fill="none" stroke="#1d1d1d" stroke-width="2" stroke-dasharray="none" stroke-dashoffset="none"/></g><path d="M 2123.0546900478594 587.7889729651718 L 2117.773775732961 590.6371204330361 L 2117.9476648295154 584.6396407471932" fill="none" stroke="#1d1d1d" stroke-width="2"/></g></g></g><g clip-path="url(#cuO_csJNVXunxQB8e0uNk)"><g transform="matrix(1, 0, 0, 1, 0, 0)" opacity="1"><g><defs><mask id="shape_module.terminate_agent_hook.aws_iam_policy.lambda-module.terminate_agent_hook.aws_iam_policy.lambda1703090947298_clip"><rect x="2160" y="260" width="200" height="200" fill="white"/><path d="M NaN NaN L 2260 360 L NaN NaN" fill="none" stroke="none"/></mask></defs><g mask="url(#shape_module.terminate_agent_hook.aws_iam_policy.lambda-module.terminate_agent_hook.aws_iam_policy.lambda1703090947298_clip)"><rect x="-100" y="-100" width="200" height="200" fill="transparent" stroke="none"/><path d="M2260,360L2260,360" fill="none" stroke="#1d1d1d" stroke-width="2" stroke-dasharray="none" stroke-dashoffset="none"/></g><path d="M NaN NaN L 2260 360 L NaN NaN" fill="none" stroke="#1d1d1d" stroke-width="2"/></g></g></g><g clip-path="url(#l62-gKCed_dtJlFUCHf8-)"><rect width="120" height="120" fill="#fcfffe" stroke="#bcc3c9" stroke-width="1" transform="matrix(1, 0, 0, 1, 2210, 600)" opacity="1"/></g><g clip-path="url(#NQxfUBVaxm27cZUp0fI3g)"><g transform="matrix(1, 0, 0, 1, 0, 0)" opacity="1"><g><defs><mask id="shape_module.terminate_agent_hook.aws_lambda_function.terminate_runner_instances-module.terminate_agent_hook.aws_iam_role.lambda1703090947298_clip"><rect x="2002" y="320" width="319.6919142120032" height="370.9884488742905" fill="white"/><path d="M 2221.1698122235657 585.0112079126368 L 2221.691914212003 590.9884488742905 L 2216.2544207004516 588.4519819788168" fill="none" stroke="none"/></mask></defs><g mask="url(#shape_module.terminate_agent_hook.aws_lambda_function.terminate_runner_instances-module.terminate_agent_hook.aws_iam_role.lambda1703090947298_clip)"><rect x="-100" y="-100" width="319.6919142120032" height="370.9884488742905" fill="transparent" stroke="none"/><path d="M2102,420L2221.691914212003,590.9884488742905" fill="none" stroke="#1d1d1d" stroke-width="2" stroke-dasharray="none" stroke-dashoffset="none"/></g><path d="M 2221.1698122235657 585.0112079126368 L 2221.691914212003 590.9884488742905 L 2216.2544207004516 588.4519819788168" fill="none" stroke="#1d1d1d" stroke-width="2"/></g></g></g><g clip-path="url(#fbFgMyquWnVGc6iivWWWY)"><g transform="matrix(1, 0, 0, 1, 0, 0)" opacity="1"><g><defs><mask id="shape_module.terminate_agent_hook.aws_iam_role.lambda-module.terminate_agent_hook.aws_iam_role.lambda1703090947298_clip"><rect x="2170" y="560" width="200" height="200" fill="white"/><path d="M NaN NaN L 2270 660 L NaN NaN" fill="none" stroke="none"/></mask></defs><g mask="url(#shape_module.terminate_agent_hook.aws_iam_role.lambda-module.terminate_agent_hook.aws_iam_role.lambda1703090947298_clip)"><rect x="-100" y="-100" width="200" height="200" fill="transparent" stroke="none"/><path d="M2270,660L2270,660" fill="none" stroke="#1d1d1d" stroke-width="2" stroke-dasharray="none" stroke-dashoffset="none"/></g><path d="M NaN NaN L 2270 660 L NaN NaN" fill="none" stroke="#1d1d1d" stroke-width="2"/></g></g></g><g clip-path="url(#-V9ZpB-8LDiJ5sS643HBn)"><g transform="matrix(1, 0, 0, 1, 0, 0)" opacity="1"><g><defs><mask id="shape_module.terminate_agent_hook.aws_iam_policy.lambda-module.terminate_agent_hook.aws_iam_role.lambda1703090947298_clip"><rect x="2162" y="320" width="205.63353686744085" height="369.00610602322934" fill="white"/><path d="M 2270.458762652553 583.7128934577698 L 2267.633536867441 589.0061060232293 L 2264.462093210678 583.9127824391657" fill="none" stroke="none"/></mask></defs><g mask="url(#shape_module.terminate_agent_hook.aws_iam_policy.lambda-module.terminate_agent_hook.aws_iam_role.lambda1703090947298_clip)"><rect x="-100" y="-100" width="205.63353686744085" height="369.00610602322934" fill="transparent" stroke="none"/><path d="M2262,420L2267.633536867441,589.0061060232293" fill="none" stroke="#1d1d1d" stroke-width="2" stroke-dasharray="none" stroke-dashoffset="none"/></g><path d="M 2270.458762652553 583.7128934577698 L 2267.633536867441 589.0061060232293 L 2264.462093210678 583.9127824391657" fill="none" stroke="#1d1d1d" stroke-width="2"/></g></g></g><g clip-path="url(#7arzsjP2q-TdxyzEpKoM0)"><rect width="120" height="120" fill="#fcfffe" stroke="#bcc3c9" stroke-width="1" transform="matrix(1, 0, 0, 1, 2400, 300)" opacity="1"/></g><g clip-path="url(#O5-Zgvu72flqfBcEHa_eI)"><g transform="matrix(1, 0, 0, 1, 0, 0)" opacity="1"><g><defs><mask id="shape_module.terminate_agent_hook.aws_iam_policy.spot_request_housekeeping-module.terminate_agent_hook.aws_iam_policy.spot_request_housekeeping1703090947298_clip"><rect x="2360" y="260" width="200" height="200" fill="white"/><path d="M NaN NaN L 2460 360 L NaN NaN" fill="none" stroke="none"/></mask></defs><g mask="url(#shape_module.terminate_agent_hook.aws_iam_policy.spot_request_housekeeping-module.terminate_agent_hook.aws_iam_policy.spot_request_housekeeping1703090947298_clip)"><rect x="-100" y="-100" width="200" height="200" fill="transparent" stroke="none"/><path d="M2460,360L2460,360" fill="none" stroke="#1d1d1d" stroke-width="2" stroke-dasharray="none" stroke-dashoffset="none"/></g><path d="M NaN NaN L 2460 360 L NaN NaN" fill="none" stroke="#1d1d1d" stroke-width="2"/></g></g></g><g clip-path="url(#J8xpbNssjhrHjkZO-xDAE)"><g transform="matrix(1, 0, 0, 1, 0, 0)" opacity="1"><g><defs><mask id="shape_module.terminate_agent_hook.aws_iam_policy.spot_request_housekeeping-module.terminate_agent_hook.aws_iam_role.lambda1703090947298_clip"><rect x="2213.885572893028" y="320" width="308.114427106972" height="370.70699016890353" fill="white"/><path d="M 2319.2002422876108 587.9223377262666 L 2313.885572893028 590.7069901689035 L 2314.1313278342855 584.7120252391607" fill="none" stroke="none"/></mask></defs><g mask="url(#shape_module.terminate_agent_hook.aws_iam_policy.spot_request_housekeeping-module.terminate_agent_hook.aws_iam_role.lambda1703090947298_clip)"><rect x="-100" y="-100" width="308.114427106972" height="370.70699016890353" fill="transparent" stroke="none"/><path d="M2422,420L2313.885572893028,590.7069901689035" fill="none" stroke="#1d1d1d" stroke-width="2" stroke-dasharray="none" stroke-dashoffset="none"/></g><path d="M 2319.2002422876108 587.9223377262666 L 2313.885572893028 590.7069901689035 L 2314.1313278342855 584.7120252391607" fill="none" stroke="#1d1d1d" stroke-width="2"/></g></g></g><rect width="120" height="120" fill="#fcfffe" stroke="#bcc3c9" stroke-width="1" transform="matrix(1, 0, 0, 1, 1695, 60)" opacity="1"/><g transform="matrix(1, 0, 0, 1, 0, 0)" opacity="1"><g><defs><mask id="shape_aws_autoscaling_group.gitlab_runner_instance-aws_autoscaling_group.gitlab_runner_instance1703090947298_clip"><rect x="1655" y="20" width="200" height="200" fill="white"/><path d="M NaN NaN L 1755 120 L NaN NaN" fill="none" stroke="none"/></mask></defs><g mask="url(#shape_aws_autoscaling_group.gitlab_runner_instance-aws_autoscaling_group.gitlab_runner_instance1703090947298_clip)"><rect x="-100" y="-100" width="200" height="200" fill="transparent" stroke="none"/><path d="M1755,120L1755,120" fill="none" stroke="#1d1d1d" stroke-width="2" stroke-dasharray="none" stroke-dashoffset="none"/></g><path d="M NaN NaN L 1755 120 L NaN NaN" fill="none" stroke="#1d1d1d" stroke-width="2"/></g></g><rect width="120" height="120" fill="#fcfffe" stroke="#bcc3c9" stroke-width="1" transform="matrix(1, 0, 0, 1, 1695, 300)" opacity="1"/><g transform="matrix(1, 0, 0, 1, 0, 0)" opacity="1"><g><defs><mask id="shape_aws_security_group.runner-aws_security_group.runner1703090947298_clip"><rect x="1655" y="260" width="200" height="200" fill="white"/><path d="M NaN NaN L 1755 360 L NaN NaN" fill="none" stroke="none"/></mask></defs><g mask="url(#shape_aws_security_group.runner-aws_security_group.runner1703090947298_clip)"><rect x="-100" y="-100" width="200" height="200" fill="transparent" stroke="none"/><path d="M1755,360L1755,360" fill="none" stroke="#1d1d1d" stroke-width="2" stroke-dasharray="none" stroke-dashoffset="none"/></g><path d="M NaN NaN L 1755 360 L NaN NaN" fill="none" stroke="#1d1d1d" stroke-width="2"/></g></g><g transform="matrix(1, 0, 0, 1, 0, 0)" opacity="1"><g><defs><mask id="shape_aws_autoscaling_group.gitlab_runner_instance-aws_security_group.runner1703090947298_clip"><rect x="1655" y="80" width="200" height="309" fill="white"/><path d="M 1758 283.80384757729337 L 1755 289 L 1752 283.80384757729337" fill="none" stroke="none"/></mask></defs><g mask="url(#shape_aws_autoscaling_group.gitlab_runner_instance-aws_security_group.runner1703090947298_clip)"><rect x="-100" y="-100" width="200" height="309" fill="transparent" stroke="none"/><path d="M1755,180L1755,289" fill="none" stroke="#1d1d1d" stroke-width="2" stroke-dasharray="none" stroke-dashoffset="none"/></g><path d="M 1758 283.80384757729337 L 1755 289 L 1752 283.80384757729337" fill="none" stroke="#1d1d1d" stroke-width="2"/></g></g><rect width="120" height="120" fill="#fcfffe" stroke="#bcc3c9" stroke-width="1" transform="matrix(1, 0, 0, 1, 1695, 600)" opacity="1"/><g transform="matrix(1, 0, 0, 1, 0, 0)" opacity="1"><g><defs><mask id="shape_aws_security_group.runner-aws_cloudwatch_log_group.environment1703090947298_clip"><rect x="1655" y="320" width="200" height="369" fill="white"/><path d="M 1758 583.8038475772934 L 1755 589 L 1752 583.8038475772934" fill="none" stroke="none"/></mask></defs><g mask="url(#shape_aws_security_group.runner-aws_cloudwatch_log_group.environment1703090947298_clip)"><rect x="-100" y="-100" width="200" height="369" fill="transparent" stroke="none"/><path d="M1755,420L1755,589" fill="none" stroke="#1d1d1d" stroke-width="2" stroke-dasharray="none" stroke-dashoffset="none"/></g><path d="M 1758 583.8038475772934 L 1755 589 L 1752 583.8038475772934" fill="none" stroke="#1d1d1d" stroke-width="2"/></g></g><rect width="120" height="120" fill="#fcfffe" stroke="#bcc3c9" stroke-width="1" transform="matrix(1, 0, 0, 1, 855, 60)" opacity="1"/><g transform="matrix(1, 0, 0, 1, 0, 0)" opacity="1"><g><defs><mask id="shape_aws_iam_policy.eip-aws_iam_policy.eip1703090947298_clip"><rect x="815" y="20" width="200" height="200" fill="white"/><path d="M NaN NaN L 915 120 L NaN NaN" fill="none" stroke="none"/></mask></defs><g mask="url(#shape_aws_iam_policy.eip-aws_iam_policy.eip1703090947298_clip)"><rect x="-100" y="-100" width="200" height="200" fill="transparent" stroke="none"/><path d="M915,120L915,120" fill="none" stroke="#1d1d1d" stroke-width="2" stroke-dasharray="none" stroke-dashoffset="none"/></g><path d="M NaN NaN L 915 120 L NaN NaN" fill="none" stroke="#1d1d1d" stroke-width="2"/></g></g><rect width="120" height="120" fill="#fcfffe" stroke="#bcc3c9" stroke-width="1" transform="matrix(1, 0, 0, 1, 665, 300)" opacity="1"/><g transform="matrix(1, 0, 0, 1, 0, 0)" opacity="1"><g><defs><mask id="shape_aws_iam_role.instance-aws_iam_role.instance1703090947298_clip"><rect x="625" y="260" width="200" height="200" fill="white"/><path d="M NaN NaN L 725 360 L NaN NaN" fill="none" stroke="none"/></mask></defs><g mask="url(#shape_aws_iam_role.instance-aws_iam_role.instance1703090947298_clip)"><rect x="-100" y="-100" width="200" height="200" fill="transparent" stroke="none"/><path d="M725,360L725,360" fill="none" stroke="#1d1d1d" stroke-width="2" stroke-dasharray="none" stroke-dashoffset="none"/></g><path d="M NaN NaN L 725 360 L NaN NaN" fill="none" stroke="#1d1d1d" stroke-width="2"/></g></g><g transform="matrix(1, 0, 0, 1, 0, 0)" opacity="1"><g><defs><mask id="shape_aws_iam_policy.eip-aws_iam_role.instance1703090947298_clip"><rect x="679.3277323880212" y="80" width="288.1722676119788" height="311.37549593092064" fill="white"/><path d="M 784.9051369695527 289.1635831537273 L 779.3277323880212 291.37549593092064 L 780.2008620227822 285.43936548753396" fill="none" stroke="none"/></mask></defs><g mask="url(#shape_aws_iam_policy.eip-aws_iam_role.instance1703090947298_clip)"><rect x="-100" y="-100" width="288.1722676119788" height="311.37549593092064" fill="transparent" stroke="none"/><path d="M867.5,180L779.3277323880212,291.37549593092064" fill="none" stroke="#1d1d1d" stroke-width="2" stroke-dasharray="none" stroke-dashoffset="none"/></g><path d="M 784.9051369695527 289.1635831537273 L 779.3277323880212 291.37549593092064 L 780.2008620227822 285.43936548753396" fill="none" stroke="#1d1d1d" stroke-width="2"/></g></g><rect width="120" height="120" fill="#fcfffe" stroke="#bcc3c9" stroke-width="1" transform="matrix(1, 0, 0, 1, 1275, 60)" opacity="1"/><g transform="matrix(1, 0, 0, 1, 0, 0)" opacity="1"><g><defs><mask id="shape_aws_iam_policy.instance_docker_machine_policy-aws_iam_role.instance1703090947298_clip"><rect x="695.2362254686713" y="43.60655737704917" width="679.7637745313287" height="388.7595178483917" fill="white"/><path d="M 801.1699609196655 333.25533536601466 L 795.2362254686713 332.36607522544085 L 798.9732150664782 327.6719396558304" fill="none" stroke="none"/></mask></defs><g mask="url(#shape_aws_iam_policy.instance_docker_machine_policy-aws_iam_role.instance1703090947298_clip)"><rect x="-100" y="-100" width="679.7637745313287" height="388.7595178483917" fill="transparent" stroke="none"/><path d="M1275,143.60655737704917L795.2362254686713,332.36607522544085" fill="none" stroke="#1d1d1d" stroke-width="2" stroke-dasharray="none" stroke-dashoffset="none"/></g><path d="M 801.1699609196655 333.25533536601466 L 795.2362254686713 332.36607522544085 L 798.9732150664782 327.6719396558304" fill="none" stroke="#1d1d1d" stroke-width="2"/></g></g><g transform="matrix(1, 0, 0, 1, 0, 0)" opacity="1"><g><defs><mask id="shape_aws_iam_policy.instance_docker_machine_policy-aws_iam_policy.instance_docker_machine_policy1703090947298_clip"><rect x="1235" y="20" width="200" height="200" fill="white"/><path d="M NaN NaN L 1335 120 L NaN NaN" fill="none" stroke="none"/></mask></defs><g mask="url(#shape_aws_iam_policy.instance_docker_machine_policy-aws_iam_policy.instance_docker_machine_policy1703090947298_clip)"><rect x="-100" y="-100" width="200" height="200" fill="transparent" stroke="none"/><path d="M1335,120L1335,120" fill="none" stroke="#1d1d1d" stroke-width="2" stroke-dasharray="none" stroke-dashoffset="none"/></g><path d="M NaN NaN L 1335 120 L NaN NaN" fill="none" stroke="#1d1d1d" stroke-width="2"/></g></g><rect width="120" height="120" fill="#fcfffe" stroke="#bcc3c9" stroke-width="1" transform="matrix(1, 0, 0, 1, 1085, 300)" opacity="1"/><g transform="matrix(1, 0, 0, 1, 0, 0)" opacity="1"><g><defs><mask id="shape_aws_iam_role.docker_machine-aws_iam_role.docker_machine1703090947298_clip"><rect x="1045" y="260" width="200" height="200" fill="white"/><path d="M NaN NaN L 1145 360 L NaN NaN" fill="none" stroke="none"/></mask></defs><g mask="url(#shape_aws_iam_role.docker_machine-aws_iam_role.docker_machine1703090947298_clip)"><rect x="-100" y="-100" width="200" height="200" fill="transparent" stroke="none"/><path d="M1145,360L1145,360" fill="none" stroke="#1d1d1d" stroke-width="2" stroke-dasharray="none" stroke-dashoffset="none"/></g><path d="M NaN NaN L 1145 360 L NaN NaN" fill="none" stroke="#1d1d1d" stroke-width="2"/></g></g><g transform="matrix(1, 0, 0, 1, 0, 0)" opacity="1"><g><defs><mask id="shape_aws_iam_policy.instance_docker_machine_policy-aws_iam_role.docker_machine1703090947298_clip"><rect x="1099.327732388021" y="80" width="288.1722676119789" height="311.37549593092064" fill="white"/><path d="M 1204.9051369695528 289.16358315372736 L 1199.327732388021 291.37549593092064 L 1200.200862022782 285.4393654875339" fill="none" stroke="none"/></mask></defs><g mask="url(#shape_aws_iam_policy.instance_docker_machine_policy-aws_iam_role.docker_machine1703090947298_clip)"><rect x="-100" y="-100" width="288.1722676119789" height="311.37549593092064" fill="transparent" stroke="none"/><path d="M1287.5,180L1199.327732388021,291.37549593092064" fill="none" stroke="#1d1d1d" stroke-width="2" stroke-dasharray="none" stroke-dashoffset="none"/></g><path d="M 1204.9051369695528 289.16358315372736 L 1199.327732388021 291.37549593092064 L 1200.200862022782 285.4393654875339" fill="none" stroke="#1d1d1d" stroke-width="2"/></g></g><rect width="120" height="120" fill="#fcfffe" stroke="#bcc3c9" stroke-width="1" transform="matrix(1, 0, 0, 1, 1065, 60)" opacity="1"/><g transform="matrix(1, 0, 0, 1, 0, 0)" opacity="1"><g><defs><mask id="shape_aws_iam_policy.instance_kms_policy-aws_iam_role.instance1703090947298_clip"><rect x="694.432422182838" y="56" width="470.56757781716203" height="362.34054669029723" fill="white"/><path d="M 800.4315733925156 318.23962710139784 L 794.432422182838 318.34054669029723 L 797.3445988599505 313.0946695471226" fill="none" stroke="none"/></mask></defs><g mask="url(#shape_aws_iam_policy.instance_kms_policy-aws_iam_role.instance1703090947298_clip)"><rect x="-100" y="-100" width="470.56757781716203" height="362.34054669029723" fill="transparent" stroke="none"/><path d="M1065,156L794.432422182838,318.34054669029723" fill="none" stroke="#1d1d1d" stroke-width="2" stroke-dasharray="none" stroke-dashoffset="none"/></g><path d="M 800.4315733925156 318.23962710139784 L 794.432422182838 318.34054669029723 L 797.3445988599505 313.0946695471226" fill="none" stroke="#1d1d1d" stroke-width="2"/></g></g><g transform="matrix(1, 0, 0, 1, 0, 0)" opacity="1"><g><defs><mask id="shape_aws_iam_policy.instance_kms_policy-aws_iam_policy.instance_kms_policy1703090947298_clip"><rect x="1025" y="20" width="200" height="200" fill="white"/><path d="M NaN NaN L 1125 120 L NaN NaN" fill="none" stroke="none"/></mask></defs><g mask="url(#shape_aws_iam_policy.instance_kms_policy-aws_iam_policy.instance_kms_policy1703090947298_clip)"><rect x="-100" y="-100" width="200" height="200" fill="transparent" stroke="none"/><path d="M1125,120L1125,120" fill="none" stroke="#1d1d1d" stroke-width="2" stroke-dasharray="none" stroke-dashoffset="none"/></g><path d="M NaN NaN L 1125 120 L NaN NaN" fill="none" stroke="#1d1d1d" stroke-width="2"/></g></g><rect width="120" height="120" fill="#fcfffe" stroke="#bcc3c9" stroke-width="1" transform="matrix(1, 0, 0, 1, 1285, 300)" opacity="1"/><g transform="matrix(1, 0, 0, 1, 0, 0)" opacity="1"><g><defs><mask id="shape_aws_kms_key.default-aws_kms_key.default1703090947298_clip"><rect x="1245" y="260" width="200" height="200" fill="white"/><path d="M NaN NaN L 1345 360 L NaN NaN" fill="none" stroke="none"/></mask></defs><g mask="url(#shape_aws_kms_key.default-aws_kms_key.default1703090947298_clip)"><rect x="-100" y="-100" width="200" height="200" fill="transparent" stroke="none"/><path d="M1345,360L1345,360" fill="none" stroke="#1d1d1d" stroke-width="2" stroke-dasharray="none" stroke-dashoffset="none"/></g><path d="M NaN NaN L 1345 360 L NaN NaN" fill="none" stroke="#1d1d1d" stroke-width="2"/></g></g><g transform="matrix(1, 0, 0, 1, 0, 0)" opacity="1"><g><defs><mask id="shape_aws_iam_policy.instance_kms_policy-aws_kms_key.default1703090947298_clip"><rect x="1080" y="80" width="302.5670290863093" height="311.8913044577918" fill="white"/><path d="M 1281.2673233413584 286.0337653007274 L 1282.5670290863093 291.8913044577918 L 1276.844398500154 290.0881130718316" fill="none" stroke="none"/></mask></defs><g mask="url(#shape_aws_iam_policy.instance_kms_policy-aws_kms_key.default1703090947298_clip)"><rect x="-100" y="-100" width="302.5670290863093" height="311.8913044577918" fill="transparent" stroke="none"/><path d="M1180,180L1282.5670290863093,291.8913044577918" fill="none" stroke="#1d1d1d" stroke-width="2" stroke-dasharray="none" stroke-dashoffset="none"/></g><path d="M 1281.2673233413584 286.0337653007274 L 1282.5670290863093 291.8913044577918 L 1276.844398500154 290.0881130718316" fill="none" stroke="#1d1d1d" stroke-width="2"/></g></g><rect width="120" height="120" fill="#fcfffe" stroke="#bcc3c9" stroke-width="1" transform="matrix(1, 0, 0, 1, 655, 60)" opacity="1"/><g transform="matrix(1, 0, 0, 1, 0, 0)" opacity="1"><g><defs><mask id="shape_aws_iam_policy.instance_session_manager_policy-aws_iam_role.instance1703090947298_clip"><rect x="617.5" y="80" width="204.542064008166" height="309.00953619598414" fill="white"/><path d="M 724.8231445716783 283.6929968234925 L 722.042064008166 289.00953619598414 L 718.8283461331242 283.94278009176554" fill="none" stroke="none"/></mask></defs><g mask="url(#shape_aws_iam_policy.instance_session_manager_policy-aws_iam_role.instance1703090947298_clip)"><rect x="-100" y="-100" width="204.542064008166" height="309.00953619598414" fill="transparent" stroke="none"/><path d="M717.5,180L722.042064008166,289.00953619598414" fill="none" stroke="#1d1d1d" stroke-width="2" stroke-dasharray="none" stroke-dashoffset="none"/></g><path d="M 724.8231445716783 283.6929968234925 L 722.042064008166 289.00953619598414 L 718.8283461331242 283.94278009176554" fill="none" stroke="#1d1d1d" stroke-width="2"/></g></g><g transform="matrix(1, 0, 0, 1, 0, 0)" opacity="1"><g><defs><mask id="shape_aws_iam_policy.instance_session_manager_policy-aws_iam_policy.instance_session_manager_policy1703090947298_clip"><rect x="615" y="20" width="200" height="200" fill="white"/><path d="M NaN NaN L 715 120 L NaN NaN" fill="none" stroke="none"/></mask></defs><g mask="url(#shape_aws_iam_policy.instance_session_manager_policy-aws_iam_policy.instance_session_manager_policy1703090947298_clip)"><rect x="-100" y="-100" width="200" height="200" fill="transparent" stroke="none"/><path d="M715,120L715,120" fill="none" stroke="#1d1d1d" stroke-width="2" stroke-dasharray="none" stroke-dashoffset="none"/></g><path d="M NaN NaN L 715 120 L NaN NaN" fill="none" stroke="#1d1d1d" stroke-width="2"/></g></g><rect width="120" height="120" fill="#fcfffe" stroke="#bcc3c9" stroke-width="1" transform="matrix(1, 0, 0, 1, 455, 60)" opacity="1"/><g transform="matrix(1, 0, 0, 1, 0, 0)" opacity="1"><g><defs><mask id="shape_aws_iam_policy.service_linked_role-aws_iam_role.instance1703090947298_clip"><rect x="467.5" y="80" width="297.7564493134463" height="311.7216563582243" fill="white"/><path d="M 664.0924890840274 285.83563931914506 L 665.2564493134463 291.7216563582243 L 659.5770289157862 289.7866669663562" fill="none" stroke="none"/></mask></defs><g mask="url(#shape_aws_iam_policy.service_linked_role-aws_iam_role.instance1703090947298_clip)"><rect x="-100" y="-100" width="297.7564493134463" height="311.7216563582243" fill="transparent" stroke="none"/><path d="M567.5,180L665.2564493134463,291.7216563582243" fill="none" stroke="#1d1d1d" stroke-width="2" stroke-dasharray="none" stroke-dashoffset="none"/></g><path d="M 664.0924890840274 285.83563931914506 L 665.2564493134463 291.7216563582243 L 659.5770289157862 289.7866669663562" fill="none" stroke="#1d1d1d" stroke-width="2"/></g></g><g transform="matrix(1, 0, 0, 1, 0, 0)" opacity="1"><g><defs><mask id="shape_aws_iam_policy.service_linked_role-aws_iam_policy.service_linked_role1703090947298_clip"><rect x="415" y="20" width="200" height="200" fill="white"/><path d="M NaN NaN L 515 120 L NaN NaN" fill="none" stroke="none"/></mask></defs><g mask="url(#shape_aws_iam_policy.service_linked_role-aws_iam_policy.service_linked_role1703090947298_clip)"><rect x="-100" y="-100" width="200" height="200" fill="transparent" stroke="none"/><path d="M515,120L515,120" fill="none" stroke="#1d1d1d" stroke-width="2" stroke-dasharray="none" stroke-dashoffset="none"/></g><path d="M NaN NaN L 515 120 L NaN NaN" fill="none" stroke="#1d1d1d" stroke-width="2"/></g></g><rect width="120" height="120" fill="#fcfffe" stroke="#bcc3c9" stroke-width="1" transform="matrix(1, 0, 0, 1, 255, 60)" opacity="1"/><g transform="matrix(1, 0, 0, 1, 0, 0)" opacity="1"><g><defs><mask id="shape_aws_iam_policy.ssm-aws_iam_role.instance1703090947298_clip"><rect x="275" y="55.1219512195122" width="480.50684083718374" height="364.1991263437173" fill="white"/><path d="M 652.5380237161626 314.1070460230552 L 655.5068408371837 319.3210775632295 L 649.5069485067489 319.28513283913685" fill="none" stroke="none"/></mask></defs><g mask="url(#shape_aws_iam_policy.ssm-aws_iam_role.instance1703090947298_clip)"><rect x="-100" y="-100" width="480.50684083718374" height="364.1991263437173" fill="transparent" stroke="none"/><path d="M375,155.1219512195122L655.5068408371837,319.3210775632295" fill="none" stroke="#1d1d1d" stroke-width="2" stroke-dasharray="none" stroke-dashoffset="none"/></g><path d="M 652.5380237161626 314.1070460230552 L 655.5068408371837 319.3210775632295 L 649.5069485067489 319.28513283913685" fill="none" stroke="#1d1d1d" stroke-width="2"/></g></g><g transform="matrix(1, 0, 0, 1, 0, 0)" opacity="1"><g><defs><mask id="shape_aws_iam_policy.ssm-aws_iam_policy.ssm1703090947298_clip"><rect x="215" y="20" width="200" height="200" fill="white"/><path d="M NaN NaN L 315 120 L NaN NaN" fill="none" stroke="none"/></mask></defs><g mask="url(#shape_aws_iam_policy.ssm-aws_iam_policy.ssm1703090947298_clip)"><rect x="-100" y="-100" width="200" height="200" fill="transparent" stroke="none"/><path d="M315,120L315,120" fill="none" stroke="#1d1d1d" stroke-width="2" stroke-dasharray="none" stroke-dashoffset="none"/></g><path d="M NaN NaN L 315 120 L NaN NaN" fill="none" stroke="#1d1d1d" stroke-width="2"/></g></g><rect width="120" height="120" fill="#fcfffe" stroke="#bcc3c9" stroke-width="1" transform="matrix(1, 0, 0, 1, 1485, 60)" opacity="1"/><g transform="matrix(1, 0, 0, 1, 0, 0)" opacity="1"><g><defs><mask id="shape_aws_security_group.docker_machine-aws_iam_role.docker_machine1703090947298_clip"><rect x="1114.432422182838" y="56" width="470.5675778171619" height="362.34054669029723" fill="white"/><path d="M 1220.4315733925155 318.2396271013978 L 1214.432422182838 318.34054669029723 L 1217.3445988599503 313.09466954712263" fill="none" stroke="none"/></mask></defs><g mask="url(#shape_aws_security_group.docker_machine-aws_iam_role.docker_machine1703090947298_clip)"><rect x="-100" y="-100" width="470.5675778171619" height="362.34054669029723" fill="transparent" stroke="none"/><path d="M1485,156L1214.432422182838,318.34054669029723" fill="none" stroke="#1d1d1d" stroke-width="2" stroke-dasharray="none" stroke-dashoffset="none"/></g><path d="M 1220.4315733925155 318.2396271013978 L 1214.432422182838 318.34054669029723 L 1217.3445988599503 313.09466954712263" fill="none" stroke="#1d1d1d" stroke-width="2"/></g></g><g transform="matrix(1, 0, 0, 1, 0, 0)" opacity="1"><g><defs><mask id="shape_aws_security_group.docker_machine-aws_security_group.docker_machine1703090947298_clip"><rect x="1445" y="20" width="200" height="200" fill="white"/><path d="M NaN NaN L 1545 120 L NaN NaN" fill="none" stroke="none"/></mask></defs><g mask="url(#shape_aws_security_group.docker_machine-aws_security_group.docker_machine1703090947298_clip)"><rect x="-100" y="-100" width="200" height="200" fill="transparent" stroke="none"/><path d="M1545,120L1545,120" fill="none" stroke="#1d1d1d" stroke-width="2" stroke-dasharray="none" stroke-dashoffset="none"/></g><path d="M NaN NaN L 1545 120 L NaN NaN" fill="none" stroke="#1d1d1d" stroke-width="2"/></g></g><g transform="matrix(1, 0, 0, 1, 0, 0)" opacity="1"><g><defs><mask id="shape_aws_security_group.docker_machine-aws_security_group.runner1703090947298_clip"><rect x="1497.5" y="80" width="297.7564493134464" height="311.7216563582243" fill="white"/><path d="M 1694.0924890840276 285.8356393191451 L 1695.2564493134464 291.7216563582243 L 1689.5770289157863 289.78666696635617" fill="none" stroke="none"/></mask></defs><g mask="url(#shape_aws_security_group.docker_machine-aws_security_group.runner1703090947298_clip)"><rect x="-100" y="-100" width="297.7564493134464" height="311.7216563582243" fill="transparent" stroke="none"/><path d="M1597.5,180L1695.2564493134464,291.7216563582243" fill="none" stroke="#1d1d1d" stroke-width="2" stroke-dasharray="none" stroke-dashoffset="none"/></g><path d="M 1694.0924890840276 285.8356393191451 L 1695.2564493134464 291.7216563582243 L 1689.5770289157863 289.78666696635617" fill="none" stroke="#1d1d1d" stroke-width="2"/></g></g></svg>