<?xml version="1.0" encoding="UTF-8"?>
<svg width="64px" height="64px" viewBox="0 0 64 64" version="1.1" xmlns="http://www.w3.org/2000/svg" xmlns:xlink="http://www.w3.org/1999/xlink">
    <title>Icon-Architecture/48/Arch_Amazon-Genomics-CLI_48</title>
    <g id="Icon-Architecture/48/Arch_Amazon-Genomics-CLI_48" stroke="none" stroke-width="1" fill="none" fill-rule="evenodd">
        <g id="Icon-Architecture-BG/48/Compute" fill="#ED7100">
            <rect id="Rectangle" x="0" y="0" width="64" height="64"></rect>
        </g>
        <path d="M43,17 L49,17 L49,15 L43,15 L43,17 Z M42,13 L50,13 L50,11 L42,11 L42,13 Z M43,33 L49,33 L49,31 L43,31 L43,33 Z M42,37 L50,37 L50,35 L42,35 L42,37 Z M28.825,37.582 C29.051,37.397 29.185,37.125 29.192,36.833 C29.199,36.543 29.08,36.263 28.865,36.068 L17.865,26.068 L16.52,27.547 L26.662,36.768 L16.56,45.034 L17.825,46.582 L28.825,37.582 Z M27,46 L43,46 L43,44 L27,44 L27,46 Z M54,52 L54,44 L52,44 L52,52 L12,52 L12,12 L33,12 L33,10 L12,10 C10.916,10 10,10.916 10,12 L10,52 C10,53.075 10.912,53.991 12,54 L52,54 C53.084,54 54,53.084 54,52 L54,52 Z M40,35.942 C40,33.654 40.859,31.473 42.421,29.8 L51.042,20.564 C52.949,18.521 54,15.855 54,13.058 L54,10 L52,10 L52,13.058 C52,15.347 51.141,17.527 49.579,19.2 L40.958,28.436 C39.051,30.48 38,33.146 38,35.942 L38,38 L40,38 L40,35.942 Z M48.736,25.966 L47.368,27.431 L49.579,29.8 C51.141,31.473 52,33.654 52,35.942 L52,38 L54,38 L54,35.942 C54,33.146 52.949,30.48 51.042,28.436 L48.736,25.966 Z M40.958,20.564 C39.051,18.521 38,15.855 38,13.058 L38,10 L40,10 L40,13.058 C40,15.347 40.859,17.527 42.421,19.199 L44.632,21.569 L43.264,23.034 L40.958,20.564 Z" id="Fill-1" fill="#FFFFFF"></path>
    </g>
</svg>