<svg xmlns="http://www.w3.org/2000/svg" width="30" height="30" fill="none"><mask id="a" fill="#fff"><path fill-rule="evenodd" d="M23.323 12.37a6.861 6.861 0 0 1-.846 13.67H7.524a6.86 6.86 0 0 1-.847-13.67 8.326 8.326 0 0 1 16.646 0Z" clip-rule="evenodd"/></mask><path fill="#000" d="m23.323 12.37-2 .05.043 1.725 1.713.21.244-1.984Zm-16.646 0 .244 1.986 1.713-.211.042-1.726-2-.048Zm16.402 1.986a4.861 4.861 0 0 1 4.258 4.823h4c0-4.524-3.39-8.254-7.77-8.793l-.488 3.97Zm4.258 4.823a4.86 4.86 0 0 1-4.86 4.86v4a8.86 8.86 0 0 0 8.86-8.86h-4Zm-4.86 4.86H7.524v4h14.953v-4Zm-14.953 0a4.86 4.86 0 0 1-4.86-4.86h-4a8.86 8.86 0 0 0 8.86 8.86v-4Zm-4.86-4.86a4.861 4.861 0 0 1 4.257-4.823l-.489-3.97c-4.379.539-7.769 4.269-7.769 8.793h4Zm6.012-6.76A6.326 6.326 0 0 1 15 6.25v-4c-5.618 0-10.188 4.486-10.323 10.073l4 .096ZM15 6.25a6.326 6.326 0 0 1 6.324 6.17l3.999-.098C25.187 6.736 20.618 2.25 15 2.25v4Z" mask="url(#a)"/></svg>