<svg xmlns="http://www.w3.org/2000/svg" width="30" height="30" fill="none"><path fill="#000" fill-rule="evenodd" d="M14.624 8.09C8.943 8.198 3.91 10.772.702 14.71c-.408.502-.287 1.234.232 1.618.542.401 1.305.269 1.732-.253 2.48-3.038 6.22-5.132 10.493-5.604l1.465-2.381Zm-3.828 6.22c-2.233.778-4.153 2.157-5.532 3.926-.361.463-.236 1.122.236 1.472.531.393 1.283.236 1.695-.28.37-.466.787-.896 1.244-1.287l2.357-3.83Zm9.573 2.961 1.153-1.874c1.25.754 2.34 1.718 3.214 2.84.361.462.236 1.121-.236 1.47-.531.394-1.283.237-1.695-.28a9.53 9.53 0 0 0-2.436-2.156Zm-2.893 4.701 1.092-1.775a5.918 5.918 0 0 1 1.665 1.678c.255.393.119.904-.258 1.182-.558.413-1.377.127-1.81-.415a3.832 3.832 0 0 0-.69-.67Zm5.774-9.384 1.22-1.983a17.66 17.66 0 0 1 4.828 4.106c.408.5.287 1.233-.232 1.617-.542.401-1.305.269-1.732-.253a15.244 15.244 0 0 0-4.084-3.487Z" clip-rule="evenodd"/><rect width="3" height="33.372" x="23.376" y=".169" fill="#000" rx="1.5" transform="rotate(31.606 23.376 .17)"/></svg>