<svg xmlns="http://www.w3.org/2000/svg" width="30" height="30" fill="none"><path fill="#000" d="M.702 14.71c-.408.502-.287 1.234.232 1.618.542.401 1.305.269 1.732-.253C5.497 12.608 9.969 10.37 15 10.37s9.503 2.238 12.334 5.705c.427.522 1.19.654 1.732.253.52-.384.64-1.116.232-1.617C26.02 10.685 20.835 8.086 15 8.086c-5.835 0-11.02 2.6-14.298 6.625Z"/><path fill="#000" d="M24.5 19.708c.472-.35.597-1.009.236-1.472-2.187-2.806-5.733-4.63-9.736-4.63-4.002 0-7.549 1.824-9.736 4.63-.361.463-.236 1.122.236 1.472.531.393 1.283.236 1.695-.28 1.771-2.224 4.608-3.665 7.805-3.665s6.034 1.44 7.805 3.664c.412.517 1.164.674 1.695.28Z"/><path fill="#000" d="M19.975 23.057c.377-.278.513-.789.258-1.181-1.074-1.649-3.015-2.75-5.233-2.75-2.217 0-4.16 1.101-5.232 2.75-.256.392-.12.903.257 1.181.558.413 1.377.127 1.81-.415.719-.902 1.869-1.485 3.165-1.485s2.447.583 3.165 1.485c.433.542 1.252.828 1.81.415Z"/></svg>