<svg id="afc02452-1738-4824-8831-946181f694dd" xmlns="http://www.w3.org/2000/svg" width="18" height="18" viewBox="0 0 18 18"><defs><linearGradient id="bbfb4223-1f55-4ad0-bbc1-61c57502cb53" x1="196.184" y1="-363.507" x2="191.634" y2="-354.877" gradientTransform="matrix(1, 0, 0, -1, -183, -351)" gradientUnits="userSpaceOnUse"><stop offset="0" stop-color="#1988d9" /><stop offset="0.9" stop-color="#54aef0" /></linearGradient><linearGradient id="bf75bce9-fc3e-4175-b06d-a264f97ce481" x1="194.222" y1="-360.998" x2="197.372" y2="-366.428" gradientTransform="matrix(1, 0, 0, -1, -183, -351)" gradientUnits="userSpaceOnUse"><stop offset="0.1" stop-color="#54aef0" /><stop offset="0.29" stop-color="#4fabee" /><stop offset="0.51" stop-color="#41a2e9" /><stop offset="0.74" stop-color="#2a93e0" /><stop offset="0.88" stop-color="#1988d9" /></linearGradient></defs><g><path d="M1.15,9.719l7.78,5.05,7.92-5.06,1,1.15-8.92,5.75L.15,10.869Z" fill="#50e6ff" /><path d="M1.73,9.079,8.93.5l7.35,8.59-7.35,4.64Z" fill="#fff" /><path d="M8.93.5v13.23l-7.2-4.65Z" fill="#50e6ff" /><path d="M8.93.5v13.23l7.35-4.64Z" fill="url(#bbfb4223-1f55-4ad0-bbc1-61c57502cb53)" /><path d="M8.93,7.329l7.35,1.76-7.35,4.64Z" fill="#53b1e0" /><path d="M8.93,13.729l-7.2-4.65,7.2-1.75Z" fill="#9cebff" /><path d="M8.93,16.609l8.92-5.75-1-1.15-7.92,5.06Z" fill="url(#bf75bce9-fc3e-4175-b06d-a264f97ce481)" /><path d="M16.32,11.379a1.159,1.159,0,0,0,.01-1.64l-.01-.01-2-2a1.159,1.159,0,0,0-1.64,0l-2,2a1.181,1.181,0,0,0,0,1.65l1.67,1.67a.318.318,0,0,1,.09.23v3.1a.362.362,0,0,0,.12.28l.76.76a.25.25,0,0,0,.353.017l.017-.017.73-.73.44-.44a.15.15,0,0,0,0-.21l-.31-.31a.16.16,0,0,1-.014-.226l.014-.014.31-.31a.161.161,0,0,0,0-.22l-.31-.31a.149.149,0,0,1-.019-.211.17.17,0,0,1,.019-.019l.31-.32a.15.15,0,0,0,0-.21l-.44-.44v-.16ZM13.5,8.209a.66.66,0,1,1-.66.66h0A.66.66,0,0,1,13.5,8.209Z" fill="#ffca00" /><path d="M13,16.5a.14.14,0,0,0,.24-.11v-2.56a.161.161,0,0,0-.06-.13.14.14,0,0,0-.2.033.141.141,0,0,0-.025.1v2.51A.149.149,0,0,0,13,16.5Z" fill="#ff9300" opacity="0.75" /><rect x="11.9" y="10.399" width="3.29" height="0.39" rx="0.18" fill="#ff9300" opacity="0.75" /><rect x="11.9" y="11.029" width="3.29" height="0.39" rx="0.18" fill="#ff9300" opacity="0.75" /></g></svg>