<?xml version="1.0" encoding="UTF-8"?>
<svg width="64px" height="64px" viewBox="0 0 64 64" version="1.1" xmlns="http://www.w3.org/2000/svg" xmlns:xlink="http://www.w3.org/1999/xlink">
    <title>Icon-Architecture/48/Arch_AWS-GameKit_48</title>
    <g id="Icon-Architecture/48/Arch_AWS-GameKit_48" stroke="none" stroke-width="1" fill="none" fill-rule="evenodd">
        <g id="Icon-Architecture-BG/48/Game-Tech" fill="#8C4FFF">
            <rect id="Rectangle" x="0" y="0" width="64" height="64"></rect>
        </g>
        <g id="Icon-Service/48/AWS-GameKit_48" transform="translate(10.000000, 12.900000)" fill="#FFFFFF">
            <path d="M36.5,27.096 C36.5,26.268 37.172,25.596 38,25.596 C38.828,25.596 39.5,26.268 39.5,27.096 C39.5,27.924 38.828,28.596 38,28.596 C37.172,28.596 36.5,27.924 36.5,27.096 L36.5,27.096 Z M20.999,28.096 L19.999,28.096 L19.999,26.096 L20.999,26.096 L20.999,25.096 L22.999,25.096 L22.999,26.096 L23.999,26.096 L23.999,28.096 L22.999,28.096 L22.999,29.096 L20.999,29.096 L20.999,28.096 Z M41.402,38.655 C41.11,38.951 40.703,39.096 40.157,39.096 C38.435,39.096 36.831,35.234 35.771,32.678 C35.768,32.672 35.765,32.666 35.762,32.659 C36.454,32.938 37.208,33.096 37.999,33.096 C39.537,33.096 40.937,32.51 42,31.555 L42,36.909 C42.006,37.219 41.91,38.137 41.402,38.655 L41.402,38.655 Z M19.842,39.096 C19.296,39.096 18.889,38.952 18.598,38.655 C18.09,38.137 17.994,37.219 18,36.884 L18,31.556 C19.062,32.51 20.462,33.096 21.999,33.096 C22.79,33.096 23.543,32.938 24.235,32.659 C24.232,32.666 24.229,32.673 24.227,32.68 C23.167,35.235 21.564,39.096 19.842,39.096 L19.842,39.096 Z M21.999,23.096 C24.205,23.096 25.999,24.89 25.999,27.096 C25.999,29.301 24.205,31.096 21.999,31.096 C19.793,31.096 17.999,29.301 17.999,27.096 C17.999,24.89 19.793,23.096 21.999,23.096 L21.999,23.096 Z M32.811,30.096 L27.187,30.096 C27.7,29.212 27.999,28.189 27.999,27.096 C27.999,26.002 27.7,24.98 27.187,24.096 L32.811,24.096 C32.298,24.98 31.999,26.002 31.999,27.096 C31.999,28.189 32.298,29.212 32.811,30.096 L32.811,30.096 Z M37.999,23.096 C40.205,23.096 41.999,24.89 41.999,27.096 C41.999,29.301 40.205,31.096 37.999,31.096 C35.793,31.096 33.999,29.301 33.999,27.096 C33.999,24.89 35.793,23.096 37.999,23.096 L37.999,23.096 Z M44,36.884 L43.999,27.096 C43.999,23.787 41.308,21.096 37.999,21.096 C36.776,21.096 35.639,21.465 34.689,22.096 L25.309,22.096 C24.359,21.465 23.222,21.096 21.999,21.096 C18.69,21.096 15.99893,23.787 15.99893,27.096 L16,36.853 C15.994,37.051 15.975,38.823 17.155,40.041 C17.824,40.731 18.754,41.096 19.842,41.096 C22.899,41.096 24.66,36.855 26.074,33.446 C26.273,32.967 26.462,32.511 26.644,32.096 L33.354,32.096 C33.535,32.51 33.725,32.967 33.924,33.445 C35.339,36.854 37.1,41.096 40.157,41.096 C41.245,41.096 42.175,40.731 42.844,40.041 C44.024,38.823 44.006,37.051 44,36.884 L44,36.884 Z M2,13.097 L2,11.579 L6.37,8.097 L36.63,8.097 L41,11.579 L41,13.097 L35,13.097 L35,11.097 C35,10.545 34.553,10.097 34,10.097 L30,10.097 C29.447,10.097 29,10.545 29,11.097 L29,13.097 L14,13.097 L14,11.097 C14,10.545 13.553,10.097 13,10.097 L9,10.097 C8.447,10.097 8,10.545 8,11.097 L8,13.097 L2,13.097 Z M13,6.097 L30,6.097 L30,2 L13,2 L13,6.097 Z M31,17.097 L33,17.097 L33,12.097 L31,12.097 L31,17.097 Z M10,17.097 L12,17.097 L12,12.097 L10,12.097 L10,17.097 Z M9,19.097 L13,19.097 C13.553,19.097 14,18.649 14,18.097 L14,15.097 L29,15.097 L29,18.097 C29,18.649 29.447,19.097 30,19.097 L34,19.097 C34.553,19.097 35,18.649 35,18.097 L35,15.097 L40,15.097 L40,20.097 L42,20.097 L42,16.097 C42.553,16.097 43,15.649 43,15.097 L43,11.097 C43,10.792 42.861,10.505 42.623,10.315 L37.603,6.315 C37.426,6.173 37.206,6.097 36.979,6.097 L32,6.097 L32,1.844 C32,0.827 31.139,3.55271368e-15 30.079,3.55271368e-15 L12.502,3.55271368e-15 C11.864,3.55271368e-15 11.367,0.313 11.14,0.859 C11,1.194 11,1.533 11,1.844 L11,6.097 L6.021,6.097 C5.794,6.097 5.574,6.173 5.397,6.315 L0.377,10.315 C0.139,10.505 -3.55271368e-15,10.792 -3.55271368e-15,11.097 L-3.55271368e-15,15.097 C-3.55271368e-15,15.649 0.447,16.097 1,16.097 L1,28.278 C1,29.832 2.265,31.097 3.818,31.097 L13.999,31.097 L13.999,29.097 L3.818,29.097 C3.367,29.097 3,28.73 3,28.278 L3,15.097 L8,15.097 L8,18.097 C8,18.649 8.447,19.097 9,19.097 L9,19.097 Z" id="Fill-6"></path>
        </g>
    </g>
</svg>