<?xml version="1.0" encoding="UTF-8"?>
<svg width="64px" height="64px" viewBox="0 0 64 64" version="1.1" xmlns="http://www.w3.org/2000/svg" xmlns:xlink="http://www.w3.org/1999/xlink">
    <title>Icon-Architecture/48/Arch_Amazon-GameSparks_48</title>
    <g id="Icon-Architecture/48/Arch_Amazon-GameSparks_48" stroke="none" stroke-width="1" fill="none" fill-rule="evenodd">
        <g id="Icon-Architecture-BG/48/Game-Tech" fill="#8C4FFF">
            <rect id="Rectangle" x="0" y="0" width="64" height="64"></rect>
        </g>
        <g id="Icon-Service/48/Amazon-GameSparks_48" transform="translate(10.000000, 10.000000)" fill="#FFFFFF">
            <path d="M36.5,29.999 C36.5,29.171 37.172,28.499 38,28.499 C38.828,28.499 39.5,29.171 39.5,29.999 C39.5,30.827 38.828,31.499 38,31.499 C37.172,31.499 36.5,30.827 36.5,29.999 L36.5,29.999 Z M20.999,30.999 L19.999,30.999 L19.999,28.999 L20.999,28.999 L20.999,27.999 L22.999,27.999 L22.999,28.999 L23.999,28.999 L23.999,30.999 L22.999,30.999 L22.999,31.999 L20.999,31.999 L20.999,30.999 Z M41.402,41.558 C41.11,41.854 40.703,41.999 40.157,41.999 C38.435,41.999 36.831,38.137 35.771,35.581 C35.768,35.575 35.765,35.569 35.762,35.562 C36.454,35.841 37.208,35.999 37.999,35.999 C39.537,35.999 40.937,35.413 42,34.458 L42,39.812 C42.006,40.122 41.91,41.04 41.402,41.558 L41.402,41.558 Z M19.842,41.999 C19.296,41.999 18.889,41.855 18.598,41.558 C18.09,41.04 17.994,40.122 18,39.787 L18,34.459 C19.062,35.413 20.462,35.999 21.999,35.999 C22.79,35.999 23.543,35.841 24.235,35.562 C24.232,35.569 24.229,35.576 24.227,35.583 C23.167,38.138 21.564,41.999 19.842,41.999 L19.842,41.999 Z M21.999,25.999 C24.205,25.999 25.999,27.793 25.999,29.999 C25.999,32.204 24.205,33.999 21.999,33.999 C19.793,33.999 17.999,32.204 17.999,29.999 C17.999,27.793 19.793,25.999 21.999,25.999 L21.999,25.999 Z M32.811,32.999 L27.187,32.999 C27.7,32.115 27.999,31.092 27.999,29.999 C27.999,28.905 27.7,27.883 27.187,26.999 L32.811,26.999 C32.298,27.883 31.999,28.905 31.999,29.999 C31.999,31.092 32.298,32.115 32.811,32.999 L32.811,32.999 Z M37.999,25.999 C40.205,25.999 41.999,27.793 41.999,29.999 C41.999,32.204 40.205,33.999 37.999,33.999 C35.793,33.999 33.999,32.204 33.999,29.999 C33.999,27.793 35.793,25.999 37.999,25.999 L37.999,25.999 Z M44,39.787 L43.999,29.999 C43.999,26.69 41.308,23.999 37.999,23.999 C36.776,23.999 35.639,24.368 34.689,24.999 L25.309,24.999 C24.359,24.368 23.222,23.999 21.999,23.999 C18.69,23.999 15.99893,26.69 15.99893,29.999 L16,39.756 C15.994,39.954 15.975,41.726 17.155,42.944 C17.824,43.634 18.754,43.999 19.842,43.999 C22.899,43.999 24.66,39.758 26.074,36.349 C26.273,35.87 26.462,35.414 26.644,34.999 L33.354,34.999 C33.535,35.413 33.725,35.87 33.924,36.348 C35.339,39.757 37.1,43.999 40.157,43.999 C41.245,43.999 42.175,43.634 42.844,42.944 C44.024,41.726 44.006,39.954 44,39.787 L44,39.787 Z M24,4.313 C24.444,4.981 25.019,5.555 25.687,6 C25.019,6.444 24.444,7.018 24,7.686 C23.556,7.018 22.981,6.444 22.313,6 C22.981,5.555 23.556,4.981 24,4.313 L24,4.313 Z M19,7 C21.206,7 23,8.794 23,11 C23,11.552 23.447,12 24,12 C24.553,12 25,11.552 25,11 C25,8.794 26.794,7 29,7 C29.553,7 30,6.552 30,6 C30,5.448 29.553,5 29,5 C26.794,5 25,3.205 25,1 C25,0.448 24.553,0 24,0 C23.447,0 23,0.448 23,1 C23,3.205 21.206,5 19,5 C18.447,5 18,5.448 18,6 C18,6.552 18.447,7 19,7 L19,7 Z M11.083,25.106 C9.931,22.402 7.868,20.203 5.351,19 C7.868,17.797 9.931,15.597 11.083,12.893 C12.235,15.597 14.298,17.797 16.816,19 C14.298,20.203 12.235,22.402 11.083,25.106 L11.083,25.106 Z M22.167,19 C22.167,18.448 21.72,18 21.167,18 C16.243,18 12.083,13.42 12.083,8 C12.083,7.448 11.636,7 11.083,7 C10.53,7 10.083,7.448 10.083,8 C10.083,13.42 5.924,18 1,18 C0.447,18 0,18.448 0,19 C0,19.552 0.447,20 1,20 C5.924,20 10.083,24.579 10.083,30 C10.083,30.552 10.53,31 11.083,31 C11.636,31 12.083,30.552 12.083,30 C12.083,24.579 16.243,20 21.167,20 C21.72,20 22.167,19.552 22.167,19 L22.167,19 Z M37,12.602 C37.591,13.583 38.417,14.408 39.397,15 C38.417,15.591 37.591,16.416 37,17.397 C36.409,16.416 35.583,15.591 34.603,15 C35.583,14.408 36.409,13.583 37,12.602 L37,12.602 Z M31,16 C33.757,16 36,18.243 36,21 C36,21.552 36.447,22 37,22 C37.553,22 38,21.552 38,21 C38,18.243 40.243,16 43,16 C43.553,16 44,15.552 44,15 C44,14.448 43.553,14 43,14 C40.243,14 38,11.757 38,9 C38,8.448 37.553,8 37,8 C36.447,8 36,8.448 36,9 C36,11.757 33.757,14 31,14 C30.447,14 30,14.448 30,15 C30,15.552 30.447,16 31,16 L31,16 Z" id="Fill-4"></path>
        </g>
    </g>
</svg>