<?xml version="1.0" encoding="UTF-8"?>
<svg width="64px" height="64px" viewBox="0 0 64 64" version="1.1" xmlns="http://www.w3.org/2000/svg" xmlns:xlink="http://www.w3.org/1999/xlink">
    <title>Icon-Architecture/48/Arch_AWS-Glue-Elastic-Views_48</title>
    <g id="Icon-Architecture/48/Arch_AWS-Glue-Elastic-Views_48" stroke="none" stroke-width="1" fill="none" fill-rule="evenodd">
        <g id="Icon-Architecture-BG/48/Analytics" fill="#8C4FFF">
            <rect id="Rectangle" x="0" y="0" width="64" height="64"></rect>
        </g>
        <g id="Icon-Service/48/AWS-Glue-Elastic-Views_48" transform="translate(10.000000, 10.000000)" fill="#FFFFFF">
            <path d="M23,20 L27,20 L27,22 L23,22 L23,26 L21,26 L21,22 L17,22 L17,20 L21,20 L21,16 L23,16 L23,20 Z M42,12.313 C41.755,12.566 40.652,13 38.892,13 C36.985,13 36.092,12.5 36,12.403 L35.979,2.688 C36.092,2.504 36.99,2 38.892,2 C40.646,2 41.75,2.437 42,2.692 L42,12.313 Z M22,28 C18.141,28 15,24.86 15,21 C15,17.14 18.141,14 22,14 C25.859,14 29,17.14 29,21 C29,24.86 25.859,28 22,28 L22,28 Z M36,24.328 C36.225,24.208 36.82,24 37.919,24 C39.017,24 39.722,24.209 40,24.354 L40,30.649 C39.724,30.793 39.02,31 37.919,31 C36.883,31 36.247,30.812 36,30.678 L36,24.328 Z M30,41.746 C29.759,41.855 29.223,42 28.433,42 C27.697,42 27.217,41.872 27,41.772 L27,36.232 C27.2,36.14 27.657,36 28.433,36 C29.222,36 29.758,36.146 30,36.257 L30,41.746 Z M9,37.202 C8.746,37.491 7.472,38 5.378,38 C3.124,38 2.103,37.421 2,37.281 L1.984,26.795 C2.104,26.583 3.13,26 5.378,26 C7.463,26 8.74,26.512 9,26.803 L9,37.202 Z M8,12.746 C7.759,12.855 7.223,13 6.433,13 C5.697,13 5.217,12.872 5,12.772 L5,7.232 C5.2,7.14 5.657,7 6.433,7 C7.222,7 7.758,7.146 8,7.257 L8,12.746 Z M38.892,0 C35.92,0 34,1.019 34,2.597 L34,8.283 L27.523,13.91 C25.997,12.718 24.083,12 22,12 C19.42,12 17.096,13.098 15.453,14.843 L10,10.272 L10,6.982 C10,5.778 8.6,5 6.433,5 C4.348,5 3,5.778 3,6.982 L3,13.018 C3,14.24 4.315,15 6.433,15 C8.6,15 10,14.222 10,13.018 L10,12.883 L14.251,16.446 C13.461,17.784 13,19.337 13,21 C13,22.73 13.499,24.342 14.349,25.715 L11,28.572 L11,26.719 C11,24.841 8.177,24 5.378,24 C2.111,24 0,25.067 0,26.719 L0,37.281 C0,38.933 2.111,40 5.378,40 C7.972,40 11,39.288 11,37.281 L11,31.201 L15.579,27.295 C17.214,28.962 19.486,30 22,30 C22.822,30 23.614,29.88 24.371,29.673 L26.641,34.249 C25.615,34.567 25,35.176 25,35.982 L25,42.018 C25,43.24 26.315,44 28.433,44 C30.6,44 32,43.222 32,42.018 L32,35.982 C32,34.841 30.732,34.091 28.757,34.015 L26.237,28.936 C27.701,28.151 28.918,26.97 29.758,25.54 L34,27.394 L34,30.895 C34,32.193 35.502,33 37.919,33 C39.892,33 42,32.447 42,30.895 L42,24.105 C42,22.553 39.892,22 37.919,22 C35.502,22 34,22.807 34,24.105 L34,25.211 L30.579,23.716 C30.852,22.858 31,21.946 31,21 C31,18.842 30.235,16.86 28.965,15.308 L34,10.933 L34,12.403 C34,13.981 35.92,15 38.892,15 C41.248,15 44,14.32 44,12.403 L44,2.597 C44,0.803 41.435,0 38.892,0 L38.892,0 Z" id="Fill-3"></path>
        </g>
    </g>
</svg>