<?xml version="1.0" encoding="UTF-8"?>
<svg width="64px" height="64px" viewBox="0 0 64 64" version="1.1" xmlns="http://www.w3.org/2000/svg" xmlns:xlink="http://www.w3.org/1999/xlink">
    <title>Icon-Architecture/48/Arch_Amazon-API-Gateway_48</title>
    <g id="Icon-Architecture/48/Arch_Amazon-API-Gateway_48" stroke="none" stroke-width="1" fill="none" fill-rule="evenodd">
        <g id="Icon-Architecture-BG/48/Application-Integration" fill="#E7157B">
            <rect id="Rectangle" x="0" y="0" width="64" height="64"></rect>
        </g>
        <g id="Icon-Service/48/Amazon-API-Gateway_48" transform="translate(10.000000, 10.000000)" fill="#FFFFFF">
            <path d="M18,33.9999441 L21,33.9999441 L21,31.999933 L18,31.999933 L18,33.9999441 Z M23,33.9999441 L26,33.9999441 L26,31.999933 L23,31.999933 L23,33.9999441 Z M18,11.9998212 L21,11.9998212 L21,9.99981005 L18,9.99981005 L18,11.9998212 Z M23,11.9998212 L26,11.9998212 L26,9.99981005 L23,9.99981005 L23,11.9998212 Z M12,2.7407695 L2,8.57380209 L2,36.3819574 L12,41.3819854 L12,2.7407695 Z M14,9.99981005 L16,9.99981005 L16,11.9998212 L14,11.9998212 L14,31.999933 L16,31.999933 L16,33.9999441 L14,33.9999441 L14,43 C14,43.3469964 13.82,43.6679981 13.525,43.8509992 C13.365,43.9499997 13.183,44 13,44 C12.847,44 12.694,43.9649998 12.553,43.8949994 L0.553,37.8949659 C0.214,37.7249649 0,37.378963 0,36.9999609 L0,7.99979888 C0,7.6447969 0.188,7.31479505 0.496,7.13579405 L12.496,0.135754948 C12.805,-0.0442460572 13.188,-0.0452460628 13.498,0.132754932 C13.809,0.310755926 14,0.641757775 14,0.999759775 L14,9.99981005 Z M42,8.57380209 L32,2.7407695 L32,41.3819854 L42,36.3819574 L42,8.57380209 Z M44,7.99979888 L44,36.9999609 C44,37.378963 43.786,37.7249649 43.447,37.8949659 L31.447,43.8949994 C31.306,43.9649998 31.153,44 31,44 C30.817,44 30.635,43.9499997 30.475,43.8509992 C30.18,43.6679981 30,43.3469964 30,42.9999944 L30,33.9999441 L28,33.9999441 L28,31.999933 L30,31.999933 L30,11.9998212 L28,11.9998212 L28,9.99981005 L30,9.99981005 L30,0.999759775 C30,0.641757775 30.191,0.310755926 30.502,0.132754932 C30.812,-0.0442460572 31.195,-0.0442460572 31.504,0.135754948 L43.504,7.13579405 C43.812,7.31479505 44,7.6447969 44,7.99979888 L44,7.99979888 Z M24.939,17.3418511 L23.061,16.6578473 L19.061,27.6579087 L20.939,28.3419125 L24.939,17.3418511 Z M29.707,22.706881 C30.098,22.3158789 30.098,21.6838753 29.707,21.2928731 L26.707,18.2928564 L25.293,19.7068643 L27.586,21.9998771 L25.293,24.2928899 L26.707,25.7068978 L29.707,22.706881 Z M17.293,25.7068978 L14.293,22.706881 C13.902,22.3158789 13.902,21.6838753 14.293,21.2928731 L17.293,18.2928564 L18.707,19.7068643 L16.414,21.9998771 L18.707,24.2928899 L17.293,25.7068978 Z" id="Amazon-API-Gateway_Icon_48_Squid"></path>
        </g>
    </g>
</svg>