<?xml version="1.0" encoding="UTF-8"?>
<svg width="64px" height="64px" viewBox="0 0 64 64" version="1.1" xmlns="http://www.w3.org/2000/svg" xmlns:xlink="http://www.w3.org/1999/xlink">
    <title>Icon-Architecture/48/Arch_AWS-Fault-Injection-Simulator_48</title>
    <g id="Icon-Architecture/48/Arch_AWS-Fault-Injection-Simulator_48" stroke="none" stroke-width="1" fill="none" fill-rule="evenodd">
        <g id="Icon-Architecture-BG/48/Management-Governance" fill="#E7157B">
            <rect id="Rectangle" x="0" y="0" width="64" height="64"></rect>
        </g>
        <g id="Icon-Service/48/AWS-Fault-Injection-Simulator_48" transform="translate(10.155000, 10.000000)" fill="#FFFFFF">
            <path d="M26.543,22.7211048 L28.336,20.9281048 L30.129,22.7211048 L31.543,21.3071048 L29.75,19.5141048 L31.543,17.7211048 L30.129,16.3071048 L28.336,18.1001048 L26.543,16.3071048 L25.129,17.7211048 L26.922,19.5141048 L25.129,21.3071048 L26.543,22.7211048 Z M9.836,21.0141048 L11.836,21.0141048 C11.836,19.9111048 12.733,19.0141048 13.836,19.0141048 C14.939,19.0141048 15.836,19.9111048 15.836,21.0141048 L17.836,21.0141048 C17.836,18.8081048 16.042,17.0141048 13.836,17.0141048 C11.63,17.0141048 9.836,18.8081048 9.836,21.0141048 L9.836,21.0141048 Z M17.336,12.0141048 C18.163,12.0141048 18.836,11.3411048 18.836,10.5141048 C18.836,9.68710477 18.163,9.01410477 17.336,9.01410477 C16.509,9.01410477 15.836,9.68710477 15.836,10.5141048 C15.836,11.3411048 16.509,12.0141048 17.336,12.0141048 L17.336,12.0141048 Z M17.336,14.0141048 C15.406,14.0141048 13.836,12.4441048 13.836,10.5141048 C13.836,8.58410477 15.406,7.01410477 17.336,7.01410477 C19.266,7.01410477 20.836,8.58410477 20.836,10.5141048 C20.836,12.4441048 19.266,14.0141048 17.336,14.0141048 L17.336,14.0141048 Z M15.836,25.0141048 L11.836,25.0141048 L11.836,34.8791048 C13.949,34.3381048 15.836,32.2541048 15.836,31.0141048 L15.836,25.0141048 Z M15.836,40.0141048 L15.836,34.8071048 C14.752,35.8421048 13.332,36.6541048 11.836,36.9161048 L11.836,40.0141048 C11.836,41.4531048 12.397,42.0141048 13.836,42.0141048 C15.275,42.0141048 15.836,41.4531048 15.836,40.0141048 L15.836,40.0141048 Z M19.836,25.0141048 L17.836,25.0141048 L17.836,40.0141048 C17.836,42.5561048 16.378,44.0141048 13.836,44.0141048 C11.294,44.0141048 9.836,42.5561048 9.836,40.0141048 L9.836,25.0141048 L7.836,25.0141048 L7.836,23.0141048 L19.836,23.0141048 L19.836,25.0141048 Z M43.836,20.4631048 C43.836,26.7631048 38.651,28.8091048 35.909,29.0111048 L19.836,29.0141048 L19.836,27.0141048 L35.836,27.0141048 C36.008,26.9971048 41.836,26.4621048 41.836,20.4631048 C41.836,15.4321048 37.599,14.1581048 35.776,13.8451048 C35.241,13.7521048 34.877,13.2491048 34.957,12.7111048 C34.959,10.5261048 34.038,8.93310477 32.434,8.40610477 C31.018,7.94110477 29.463,8.45610477 28.558,9.68410477 C28.339,9.98210477 27.969,10.1351048 27.605,10.0801048 C27.239,10.0261048 26.933,9.77310477 26.81,9.42410477 C26.185,7.64910477 25.279,6.15810477 24.121,4.99210477 C22.7,3.56410477 18.808,0.495104772 13.313,2.82910477 C10.14,4.17710477 7.654,8.06110477 7.654,11.6731048 L7.731,12.9341048 C7.759,13.4121048 7.444,13.8431048 6.981,13.9621048 C5.121,14.4401048 2,15.9111048 2,20.3981048 C2,23.7721048 3.825,25.6331048 5.356,26.5991048 C5.797,26.8771048 6.363,27.0131048 7.086,27.0141048 L7.084,29.0141048 C5.973,29.0131048 5.059,28.7761048 4.289,28.2901048 C2.687,27.2791048 0,24.9091048 0,20.3981048 C0,15.0661048 3.517,13.0201048 5.688,12.2651048 L5.656,11.7321048 C5.654,7.24710477 8.61,2.65310477 12.531,0.988104772 C17.12,-0.959895228 21.986,0.00710477151 25.539,3.58210477 C26.579,4.62710477 27.44,5.88210477 28.112,7.32510477 C29.517,6.27910477 31.35,5.94510477 33.058,6.50610477 C35.307,7.24510477 36.721,9.28910477 36.932,12.0451048 C40.406,12.9081048 43.836,15.5001048 43.836,20.4631048 L43.836,20.4631048 Z" id="Fill-5"></path>
        </g>
    </g>
</svg>