<?xml version="1.0" encoding="UTF-8"?>
<svg width="64px" height="64px" viewBox="0 0 64 64" version="1.1" xmlns="http://www.w3.org/2000/svg" xmlns:xlink="http://www.w3.org/1999/xlink">
    <title>Icon-Architecture/48/Arch_Amazon-Honeycode_48</title>
    <g id="Icon-Architecture/48/Arch_Amazon-Honeycode_48" stroke="none" stroke-width="1" fill="none" fill-rule="evenodd">
        <g id="Icon-Architecture-BG/48/Business-Applications" fill="#DD344C">
            <rect id="Rectangle" x="0" y="0" width="64" height="64"></rect>
        </g>
        <g id="Icon-Service/48/Amazon-Honeycode_48" transform="translate(13.000000, 10.000000)" fill="#FFFFFF">
            <path d="M36,31.89 L32,34.209 L32,15.008 L19.018,6.894 L6,14.488 L6,26.682 L2,24.348 L2,12.169 L19,2.311 L36,12.169 L36,31.89 Z M12.957,12.745 L17.071,15.122 L12,17.964 L12,30.182 L8,27.848 L8,15.637 L12.957,12.745 Z M30,21.05 L26,23.509 L26,17.973 L14.946,11.585 L18.982,9.23 L30,16.117 L30,21.05 Z M19.015,30.151 L30,23.397 L30,27.658 L19.222,34.394 L14,31.348 L14,27.244 L19.015,30.151 Z M14,19.136 L19.086,16.287 L24,19.127 L24,24.739 L18.985,27.822 L14,24.932 L14,19.136 Z M2,31.89 L2,26.664 L6,28.997 L6,29.036 L6.066,29.036 L19.257,36.73 L30,30.016 L30,35.369 L19,41.747 L2,31.89 Z M19,3.55271368e-15 L0,11.016 L0,33.042 L19,44.058 L38,33.042 L38,11.016 L19,3.55271368e-15 Z" id="Fill-1"></path>
        </g>
    </g>
</svg>