<?xml version="1.0" encoding="UTF-8"?>
<svg width="64px" height="64px" viewBox="0 0 64 64" version="1.1" xmlns="http://www.w3.org/2000/svg" xmlns:xlink="http://www.w3.org/1999/xlink">
    <title>Icon-Architecture/48/Arch_Amazon-WorkSpaces-Thin-Client_48</title>
    <g id="Icon-Architecture/48/Arch_Amazon-WorkSpaces-Thin-Client_48" stroke="none" stroke-width="1" fill="none" fill-rule="evenodd">
        <g id="Icon-Architecture-BG/48/End-User-Computing" fill="#01A88D">
            <rect id="Rectangle" x="0" y="0" width="64" height="64"></rect>
        </g>
        <g id="Icon-Service/48/Amazon-WorkSpaces-Thin-Client_48" transform="translate(10.000000, 10.000000)" fill="#FFFFFF">
            <path d="M0,18 C0,14.467 2.631,11.537 6.036,11.066 C6.514,4.884 11.697,0 18,0 C22.755,0 26.963,2.746 28.9,6.973 C29.806,6.344 30.879,6 32,6 C34.87,6 37.233,8.209 37.479,11.016 C41.116,11.263 44,14.301 44,18 C44,21.86 40.859,25 37,25 L32,25 L32,23 L37,23 C39.757,23 42,20.757 42,18 C42,15.243 39.757,13 37,13 L36.449,13 C36.165,13 35.894,12.879 35.704,12.667 C35.515,12.455 35.424,12.172 35.455,11.889 L35.478,11.716 C35.487,11.645 35.5,11.574 35.5,11.5 C35.5,9.57 33.93,8 32,8 C30.946,8 29.954,8.485 29.278,9.331 C29.046,9.62 28.672,9.757 28.312,9.689 C27.949,9.621 27.653,9.358 27.543,9.005 C26.229,4.815 22.395,2 18,2 C12.486,2 8,6.486 8,12 C8,12.552 7.553,13 7,13 C4.243,13 2,15.243 2,18 C2,20.757 4.243,23 7,23 L12,23 L12,25 L7,25 C3.141,25 0,21.86 0,18 L0,18 Z M2,37 L10,37 L10,29 L2,29 L2,37 Z M17,26 L17,18.414 L18.293,19.707 L19.707,18.293 L16.707,15.293 C16.316,14.902 15.684,14.902 15.293,15.293 L12.293,18.293 L13.707,19.707 L15,18.414 L15,26 C15,27.858 13.721,29.411 12,29.858 L12,28 C12,27.448 11.553,27 11,27 L1,27 C0.447,27 0,27.448 0,28 L0,38 C0,38.552 0.447,39 1,39 L11,39 C11.553,39 12,38.552 12,38 L12,31.91 C14.833,31.431 17,28.967 17,26 L17,26 Z M34,37 L42,37 L42,29 L34,29 L34,37 Z M43,27 L33,27 C32.447,27 32,27.448 32,28 L32,29.858 C30.279,29.411 29,27.858 29,26 L29,18.414 L30.293,19.707 L31.707,18.293 L28.707,15.293 C28.316,14.902 27.684,14.902 27.293,15.293 L24.293,18.293 L25.707,19.707 L27,18.414 L27,26 C27,28.967 29.167,31.431 32,31.91 L32,38 C32,38.552 32.447,39 33,39 L43,39 C43.553,39 44,38.552 44,38 L44,28 C44,27.448 43.553,27 43,27 L43,27 Z M18,42 L26,42 L26,34 L18,34 L18,42 Z M27,32 L23,32 L23,12.414 L24.293,13.707 L25.707,12.293 L22.707,9.293 C22.316,8.902 21.684,8.902 21.293,9.293 L18.293,12.293 L19.707,13.707 L21,12.414 L21,32 L17,32 C16.447,32 16,32.448 16,33 L16,43 C16,43.552 16.447,44 17,44 L27,44 C27.553,44 28,43.552 28,43 L28,33 C28,32.448 27.553,32 27,32 L27,32 Z" id="Fill-3"></path>
        </g>
    </g>
</svg>